<svg width="16" height="16" viewBox="0 0 16 16" fill="none" xmlns="http://www.w3.org/2000/svg">
<path d="M2.89254 2C3.1194 2 3.34627 2.08998 3.52537 2.2828L7.7403 6.82033C8.08657 7.19311 8.08657 7.81011 7.7403 8.18288L3.52537 12.7204C3.1791 13.0932 2.60597 13.0932 2.2597 12.7204C1.91343 12.3476 1.91343 11.7306 2.2597 11.3579L5.84179 7.50161L2.2597 3.64534C1.91343 3.27257 1.91343 2.65557 2.2597 2.2828C2.42687 2.08998 2.65373 2 2.89254 2Z" fill="#777E90"/>
<path d="M8.89254 2C9.1194 2 9.34627 2.08998 9.52537 2.2828L13.7403 6.82033C14.0866 7.19311 14.0866 7.81011 13.7403 8.18288L9.52537 12.7204C9.1791 13.0932 8.60597 13.0932 8.2597 12.7204C7.91343 12.3476 7.91343 11.7306 8.2597 11.3579L11.8418 7.50161L8.2597 3.64534C7.91343 3.27257 7.91343 2.65557 8.2597 2.2828C8.42687 2.08998 8.65373 2 8.89254 2Z" fill="#777E90"/>
</svg>
