<svg width="630" height="467" viewBox="0 0 630 467" fill="none" xmlns="http://www.w3.org/2000/svg">
<mask id="mask0_2186_19715" style="mask-type:alpha" maskUnits="userSpaceOnUse" x="0" y="0" width="630" height="467">
<rect x="0.656006" width="629.344" height="467" fill="#212121"/>
</mask>
<g mask="url(#mask0_2186_19715)">
<g opacity="0.8">
<path d="M-288.5 201.877C-235.527 177.84 -189.144 144.46 -152.422 103.95C-67.6401 10.866 -20.965 -3.65695 6.5372 3.92381C43.7687 14.1938 45.4567 64.9446 101.429 80.6925C116.003 84.7748 122.421 83.194 204.566 74.1545C307.396 62.8323 317.826 63.0616 331.044 68.6197C373.06 86.2644 358.76 122.187 402.28 151.813C444.613 180.678 513.855 184.682 567.92 161.999C625.829 137.737 660.047 85.5328 660.91 39.3835C662.038 -21.801 603.986 -49.7773 624.258 -90.7474C636.184 -114.794 658.643 -110.145 687.26 -146.017C699.815 -161.778 726.577 -195.373 714.081 -227.182C700.685 -261.336 648.31 -277.5 609.842 -277.693C599.269 -277.752 576.932 -276.659 498.995 -237.553C410.177 -192.993 409.011 -179.223 372.659 -174.908C327.526 -169.497 285.613 -185.434 243.389 -201.487C199.611 -218.156 196.387 -227.748 158.971 -236.698C138.562 -241.571 99.5855 -250.475 54.0836 -239.157C37.3998 -235.023 -8.93857 -223.517 -27.8788 -190.08C-41.796 -165.503 -25.9333 -155.538 -34.6176 -122.602C-43.8723 -87.3367 -74.9524 -49.6487 -120.835 -33.4757C-163.442 -18.4956 -203.271 -27.5753 -225.434 -32.6339C-238.329 -35.5677 -269.299 -43.7922 -331.894 -86.3237C-404.833 -135.877 -403.346 -152.299 -428.429 -159.669C-524.94 -188.108 -770.176 -10.6512 -716.046 130.03C-689.158 199.978 -597.125 237.904 -536.009 249.426C-438.579 267.781 -355.143 231.214 -293.789 204.264C-292.044 203.451 -290.262 202.69 -288.5 201.877Z" stroke="#303133" stroke-miterlimit="10"/>
<path d="M-280.707 196.11C-229.175 172.721 -184.05 140.244 -148.321 100.833C-65.8248 10.2259 -20.4207 -3.87411 6.3178 3.49396C42.5685 13.4284 44.1573 62.8501 98.6004 78.159C112.753 82.1306 119.016 80.5855 198.924 71.7811C298.953 60.7531 309.082 60.9727 321.938 66.3762C362.81 83.4789 348.892 118.463 391.151 147.325C432.332 175.406 499.681 179.288 552.273 157.215C608.554 133.599 641.916 82.8186 642.759 37.9246C643.892 -21.6017 587.417 -48.8045 607.213 -88.6692C618.824 -112.05 640.669 -107.542 668.507 -142.493C680.725 -157.83 706.77 -190.508 694.627 -221.461C681.592 -254.664 630.667 -270.399 593.245 -270.57C582.972 -270.619 561.233 -269.56 485.406 -231.504C398.999 -188.147 397.871 -174.797 362.509 -170.552C318.595 -165.278 277.894 -180.772 236.774 -196.375C194.119 -212.554 190.981 -221.909 154.601 -230.607C134.742 -235.349 96.8373 -243.964 52.5671 -232.986C36.347 -228.959 -8.72607 -217.768 -27.1702 -185.235C-40.7103 -161.327 -25.2841 -151.62 -33.7092 -119.59C-42.7101 -85.2829 -72.9574 -48.6131 -117.59 -32.9159C-158.974 -18.3564 -197.782 -27.1836 -219.33 -32.0884C-231.852 -34.9357 -261.995 -42.9375 -322.878 -84.2986C-393.819 -132.496 -392.351 -148.458 -416.766 -155.637C-510.666 -183.226 -749.258 -10.5572 -696.69 126.289C-670.495 194.32 -580.953 231.188 -521.527 242.401C-426.771 260.235 -345.598 224.619 -285.908 198.424L-280.707 196.11Z" stroke="#303133" stroke-width="0.97" stroke-miterlimit="10"/>
<path d="M-272.816 190.399C-222.727 167.668 -178.867 136.099 -144.146 97.7879C-63.956 9.7292 -19.8289 -3.9792 6.16825 3.22009C41.4204 12.9346 42.9627 60.9155 95.8823 75.7815C109.63 79.6438 115.707 78.1375 193.378 69.5833C290.606 58.8548 300.467 59.078 312.977 64.328C352.706 81.0041 339.172 114.952 380.303 143.009C420.325 170.299 485.785 174.086 536.914 152.619C591.61 129.67 624.036 80.2984 624.847 36.6614C625.936 -21.1888 571.076 -47.6307 590.306 -86.3664C601.594 -109.106 622.828 -104.721 649.895 -138.733C661.772 -153.63 687.075 -185.397 675.276 -215.481C662.606 -247.762 613.094 -263.047 576.733 -263.192C566.744 -263.245 545.619 -262.212 471.926 -225.223C387.942 -183.072 386.828 -170.101 352.466 -165.974C309.788 -160.845 270.168 -175.909 230.223 -191.073C188.773 -206.83 185.74 -215.895 150.361 -224.346C131.003 -228.958 94.2246 -237.334 51.2082 -226.652C35.4198 -222.747 -8.38496 -211.866 -26.3081 -180.243C-39.4802 -157.006 -24.4735 -147.583 -32.6581 -116.418C-41.4109 -83.0715 -70.8784 -47.4228 -114.192 -32.1738C-154.488 -18.0073 -192.138 -26.5978 -213.089 -31.3651C-225.258 -34.1405 -254.559 -41.9124 -313.73 -82.1139C-382.678 -129.008 -381.262 -144.481 -404.979 -151.447C-496.257 -178.313 -728.158 -10.4412 -677.075 122.6C-651.661 188.737 -564.657 224.579 -506.888 235.453C-414.786 252.739 -335.879 218.117 -277.849 192.649L-272.816 190.399Z" stroke="#303133" stroke-width="0.95" stroke-miterlimit="10"/>
<path d="M-264.926 184.689C-216.277 162.618 -173.679 131.962 -139.957 94.7552C-62.1041 9.23358 -19.2227 -4.08528 6.02608 2.86473C40.2581 12.2933 41.7596 58.9003 93.1424 73.3513C106.502 77.1034 112.408 75.6349 187.842 67.3309C282.269 56.9153 291.829 57.1307 303.962 62.2158C342.544 78.425 329.398 111.39 369.354 138.644C408.233 165.144 471.803 168.808 521.454 147.974C574.582 125.705 606.057 77.7439 606.851 35.363C607.912 -20.8122 554.619 -46.4902 573.314 -84.1258C584.28 -106.211 604.934 -101.951 631.174 -134.938C642.709 -149.409 667.286 -180.266 655.831 -209.481C643.527 -240.828 595.444 -255.664 560.17 -255.837C550.466 -255.895 529.954 -254.888 458.38 -218.964C376.817 -178.033 375.751 -165.43 342.374 -161.419C300.913 -156.449 262.437 -171.072 223.668 -185.799C183.411 -201.106 180.495 -209.907 146.1 -218.124C127.37 -222.601 91.5926 -230.73 49.8131 -220.356C34.489 -216.561 -8.06315 -205.989 -25.4664 -175.291C-38.2536 -152.712 -23.6969 -143.558 -31.6311 -113.326C-40.1359 -80.9396 -68.6977 -46.3201 -110.833 -31.5104C-149.949 -17.7562 -186.518 -26.0916 -206.873 -30.7214C-218.716 -33.3825 -247.184 -41.0185 -304.638 -80.0068C-371.615 -125.501 -370.23 -140.608 -393.265 -147.348C-481.928 -173.395 -707.132 -10.4286 -657.519 118.793C-632.841 183.007 -548.343 217.82 -492.244 228.382C-402.772 245.229 -326.164 211.603 -269.822 186.876C-268.179 186.151 -266.536 185.426 -264.926 184.689Z" stroke="#303133" stroke-width="0.92" stroke-miterlimit="10"/>
<path d="M-257.019 178.978C-209.812 157.537 -168.477 127.772 -135.755 91.6545C-60.2095 8.66793 -18.6197 -4.24495 5.88419 2.49603C39.0972 11.652 40.5413 56.8728 90.4163 70.8798C103.371 74.5227 109.109 73.1189 182.288 65.0393C273.916 54.9501 283.206 55.1556 294.978 60.0882C332.413 75.8172 319.672 107.812 358.418 134.239C396.14 159.962 457.836 163.516 506.009 143.302C557.55 121.674 588.107 75.1474 588.87 34.0368C589.902 -20.4768 538.192 -45.3918 556.32 -81.9118C566.966 -103.329 586.961 -99.2023 612.464 -131.212C623.657 -145.256 647.509 -175.19 636.383 -203.535C624.459 -233.962 577.801 -248.389 543.525 -248.531C534.045 -248.563 514.209 -247.598 444.769 -212.742C365.627 -173.031 364.576 -160.793 332.199 -156.913C291.975 -152.075 254.626 -166.271 217.017 -180.559C177.952 -195.415 175.091 -203.95 141.76 -211.925C123.579 -216.261 88.8486 -224.16 48.37 -214.084C33.4909 -210.439 -7.7894 -200.137 -24.6682 -170.308C-37.0885 -148.414 -22.9491 -139.516 -30.6608 -110.176C-38.9815 -78.7594 -66.6064 -45.171 -107.47 -30.8065C-145.436 -17.4628 -180.909 -25.544 -200.605 -30.0403C-212.064 -32.6583 -239.684 -39.9838 -295.43 -77.8662C-360.41 -122.003 -359 -136.639 -381.434 -143.201C-467.439 -168.473 -685.971 -10.33 -637.831 115.031C-613.904 177.337 -531.897 211.121 -477.453 221.369C-390.725 237.716 -316.321 205.08 -261.652 181.094C-260.181 180.393 -258.587 179.658 -257.019 178.978Z" stroke="#303133" stroke-width="0.89" stroke-miterlimit="10"/>
<path d="M-249.111 173.28C-203.359 152.504 -163.292 123.667 -131.56 88.6756C-58.3213 8.22415 -18.0241 -4.29617 5.73607 2.24919C37.929 11.1192 39.3467 54.9518 87.686 68.5572C100.252 72.0899 105.82 70.7239 176.761 62.8944C265.572 53.1058 274.579 53.3158 285.99 58.0959C322.292 73.3302 309.924 104.356 347.542 129.978C384.104 154.912 443.896 158.357 490.59 138.764C540.561 117.788 570.138 72.7004 570.931 32.843C571.918 -20.0081 521.807 -44.161 539.37 -79.5522C549.692 -100.328 569.095 -96.2852 593.812 -127.354C604.647 -140.97 627.773 -169.995 616.991 -197.471C605.417 -226.962 560.191 -240.914 526.971 -241.082C517.853 -241.123 498.615 -240.184 431.231 -206.389C354.511 -167.885 353.475 -156.025 322.118 -152.223C283.112 -147.544 246.923 -161.301 210.458 -175.149C172.603 -189.542 169.811 -197.825 137.493 -205.594C119.876 -209.804 86.2093 -217.461 46.9194 -207.703C32.5115 -204.089 -7.52422 -194.189 -23.8844 -165.298C-35.9209 -144.076 -22.2169 -135.461 -29.6904 -107.013C-37.7002 -76.5603 -64.5464 -44.0064 -104.183 -30.0707C-140.968 -17.1259 -175.377 -24.9644 -194.525 -29.3336C-205.63 -31.8662 -232.392 -38.9629 -286.442 -75.6847C-349.44 -118.477 -348.147 -132.647 -369.807 -139.015C-453.186 -163.522 -665.045 -10.2028 -618.362 111.311C-595.169 171.72 -515.685 204.463 -462.895 214.399C-378.836 230.213 -306.73 198.587 -253.738 175.301C-252.167 174.648 -250.632 173.957 -249.111 173.28Z" stroke="#303133" stroke-width="0.86" stroke-miterlimit="10"/>
<path d="M-241.206 167.568C-196.899 147.446 -158.099 119.517 -127.372 85.6291C-56.4385 7.72609 -17.4026 -4.40373 5.59698 1.9336C36.7709 10.531 38.1469 52.9764 84.9614 66.1255C97.1232 69.549 102.521 68.2208 171.225 60.6415C257.278 51.1226 265.955 51.3536 277.007 55.9946C312.146 70.7631 300.182 100.792 336.577 125.615C371.98 149.758 429.898 153.093 475.114 134.12C523.516 113.811 552.189 70.1302 552.917 31.5317C553.877 -19.6443 505.349 -43.0343 522.361 -77.311C532.345 -97.4309 551.135 -93.5382 575.071 -123.6C585.58 -136.79 607.964 -164.891 597.589 -191.502C586.382 -220.058 542.583 -233.588 510.407 -233.742C501.572 -233.787 482.886 -232.869 417.683 -200.144C343.385 -162.86 342.41 -151.382 312.004 -147.722C274.249 -143.189 239.188 -156.519 203.881 -169.941C167.225 -183.803 164.513 -191.903 133.232 -199.373C116.163 -203.456 83.5611 -210.856 45.5081 -201.407C31.5913 -197.958 -7.21975 -188.326 -23.0601 -160.358C-34.7117 -139.794 -21.4575 -131.448 -28.694 -103.905C-36.44 -74.4144 -62.4435 -42.8857 -100.822 -29.3808C-136.459 -16.8599 -169.772 -24.4442 -188.308 -28.6769C-199.073 -31.1231 -224.995 -38.0033 -277.333 -73.5656C-338.333 -115 -337.081 -128.736 -358.075 -134.904C-438.812 -158.634 -643.981 -10.1256 -598.772 107.528C-576.299 166.026 -499.291 197.726 -448.218 207.352C-366.728 222.696 -296.936 192.067 -245.615 169.549L-241.206 167.568Z" stroke="#303133" stroke-width="0.84" stroke-miterlimit="10"/>
<path d="M-233.315 161.859C-190.433 142.404 -152.882 115.385 -123.15 82.595C-54.5227 7.22708 -16.7481 -4.51219 5.49089 1.61711C35.6447 9.92853 36.9799 51.0002 82.2565 63.7208C94.0283 67.0206 99.2407 65.7446 165.708 58.4155C248.917 49.2528 257.353 49.4317 267.996 53.9232C302.02 68.2094 290.428 97.2566 325.694 121.274C359.939 144.627 415.973 147.92 459.721 129.499C506.537 109.844 534.292 67.5982 534.988 30.2567C535.869 -19.2815 488.906 -41.9344 505.373 -75.0428C515.031 -94.5484 533.214 -90.7385 556.366 -119.819C566.53 -132.61 588.192 -159.76 578.099 -185.499C567.254 -213.147 524.886 -226.214 493.768 -226.368C485.203 -226.404 467.129 -225.525 404.061 -193.866C332.184 -157.802 331.225 -146.689 301.818 -143.16C265.283 -138.773 231.381 -151.663 197.266 -164.648C161.796 -178.127 159.192 -185.896 128.912 -193.12C112.392 -197.063 80.8685 -204.234 44.0524 -195.093C30.5371 -191.751 -6.97193 -182.403 -22.2936 -155.373C-33.5615 -135.481 -20.7269 -127.418 -27.7252 -100.768C-35.2231 -72.2377 -60.3839 -41.7341 -97.5062 -28.6734C-131.993 -16.5495 -164.211 -23.893 -182.15 -27.9883C-192.561 -30.3625 -217.689 -37.0098 -268.267 -71.4155C-327.332 -111.489 -326.043 -124.795 -346.418 -130.746C-424.528 -153.699 -623.014 -10.0681 -579.289 103.78C-557.546 160.422 -483.081 191.042 -433.631 200.353C-354.87 215.196 -287.284 185.53 -237.634 163.779L-233.315 161.859Z" stroke="#303133" stroke-width="0.81" stroke-miterlimit="10"/>
<path d="M-225.408 156.147C-183.983 137.343 -147.71 111.234 -118.991 79.5506C-52.6704 6.7178 -16.1718 -4.6165 5.30664 1.30477C34.4415 9.34362 35.7349 49.028 79.4926 61.3594C90.8298 64.5654 95.9032 63.3253 160.132 56.2329C240.54 47.3698 248.691 47.5532 259.021 51.8893C291.817 65.6867 280.678 93.7605 314.704 116.966C347.807 139.542 401.946 142.658 444.222 124.925C489.47 105.95 516.275 65.127 516.953 29.0416C517.839 -18.8102 472.477 -40.6743 488.389 -72.7219C497.714 -91.518 515.277 -87.9252 537.665 -115.985C547.476 -128.308 568.408 -154.589 558.642 -179.459C548.181 -206.159 507.24 -218.791 477.165 -218.944C468.884 -218.984 451.424 -218.13 390.475 -187.538C321.033 -152.708 320.134 -142.004 291.696 -138.59C256.396 -134.349 223.623 -146.798 190.619 -159.355C156.311 -172.381 153.824 -179.888 124.561 -186.866C108.605 -190.682 78.145 -197.611 42.5658 -188.778C29.5159 -185.533 -6.72941 -176.549 -21.5435 -150.401C-32.4276 -131.182 -20.026 -123.374 -26.7873 -97.63C-34.0372 -70.0598 -58.3552 -40.5814 -94.2366 -27.9639C-127.543 -16.2523 -158.603 -23.3592 -176.007 -27.2995C-186.064 -29.5883 -210.304 -36.0222 -259.23 -69.2375C-316.314 -107.966 -315.079 -120.81 -334.696 -126.579C-410.18 -148.769 -601.977 -9.96174 -559.724 100.053C-538.721 154.731 -466.758 184.377 -418.978 193.376C-342.803 207.722 -277.561 179.083 -229.588 158.032L-225.408 156.147Z" stroke="#303133" stroke-width="0.78" stroke-miterlimit="10"/>
<path d="M-217.502 150.436C-177.527 132.286 -142.521 107.091 -114.801 76.518C-50.8028 6.22118 -15.5655 -4.72255 5.16926 1.00311C33.2997 8.75497 34.457 47.0582 76.7831 58.9138C87.7473 62.0086 92.6031 60.8093 154.594 53.9671C232.202 45.4169 240.069 45.5915 250.038 49.7751C281.749 63.0882 270.936 90.1967 303.785 112.586C335.698 134.374 387.979 137.379 428.791 120.252C472.453 101.931 498.324 62.5304 498.986 27.7009C499.845 -18.4625 456.049 -39.5759 471.474 -70.4996C480.495 -88.6152 497.432 -85.1445 519.033 -112.264C528.501 -124.161 548.708 -149.518 539.287 -173.519C529.143 -199.295 489.662 -211.493 460.646 -211.632C452.745 -211.67 435.803 -210.849 376.973 -181.322C309.939 -147.684 309.057 -137.319 281.573 -134.02C247.507 -129.938 215.875 -141.988 184.018 -154.064C150.934 -166.642 148.502 -173.882 120.27 -180.629C104.863 -184.305 75.4514 -190.99 41.1249 -182.466C28.5235 -179.33 -6.43769 -170.657 -20.7465 -145.418C-31.2626 -126.87 -19.2807 -119.347 -25.788 -94.4955C-32.7741 -67.8867 -56.2338 -39.4344 -90.8743 -27.2601C-123.062 -15.9435 -153.074 -22.8066 -169.803 -26.6144C-179.474 -28.8333 -202.904 -35.0353 -250.121 -67.1179C-305.16 -104.505 -304.028 -116.897 -322.963 -122.454C-395.82 -143.866 -580.916 -9.91083 -540.134 96.2711C-519.865 149.053 -450.41 177.657 -404.331 186.346C-330.807 200.185 -267.847 172.555 -221.532 152.23L-217.502 150.436Z" stroke="#303133" stroke-width="0.75" stroke-miterlimit="10"/>
<path d="M-209.595 144.724C-171.06 127.236 -137.319 102.948 -110.611 73.4718C-48.9188 5.7235 -14.9585 -4.82868 5.03134 0.687944C32.1417 8.15382 33.3368 45.0782 74.0463 56.5103C84.6375 59.4939 89.3071 58.3334 149.061 51.7414C223.869 43.5042 231.45 43.6699 241.058 47.701C271.622 60.5339 261.213 86.6586 292.855 108.248C323.655 129.23 374.017 132.141 413.35 115.633C455.428 97.9801 480.379 60.0007 481.009 26.4283C481.87 -18.0755 439.627 -38.4106 454.421 -68.2281C463.118 -85.7159 479.446 -82.3414 500.264 -108.48C509.406 -119.951 528.872 -144.385 519.794 -167.53C510.048 -192.36 471.964 -204.121 443.929 -204.255C436.232 -204.292 419.983 -203.501 363.287 -175.041C298.677 -142.597 297.823 -132.638 271.387 -129.459C238.557 -125.51 208.055 -137.092 177.355 -148.769C145.463 -160.897 143.118 -167.872 115.902 -174.373C101.061 -177.91 72.7113 -184.366 39.6217 -176.15C27.5428 -173.182 -6.16114 -164.765 -19.9525 -140.476C-30.0848 -122.6 -18.5528 -115.345 -24.8388 -91.3983C-31.5768 -65.7498 -54.1939 -38.3227 -87.5776 -26.5927C-118.569 -15.6895 -147.532 -22.2954 -163.649 -25.9667C-173.01 -28.0704 -195.554 -34.0723 -241.074 -65.0077C-294.132 -101.037 -293.04 -112.981 -311.279 -118.353C-381.51 -138.986 -559.918 -9.86945 -520.608 92.4793C-501.074 143.351 -434.141 170.928 -389.686 179.288C-318.811 192.635 -258.15 166.001 -213.492 146.416L-209.595 144.724Z" stroke="#303133" stroke-width="0.73" stroke-miterlimit="10"/>
<path d="M-201.704 139.014C-164.611 122.179 -132.127 98.8047 -106.405 70.4385C-47.0346 5.2263 -14.3513 -4.93438 4.89367 0.373216C30.9851 7.56652 32.1382 43.1037 71.3254 54.1064C81.5109 56.9673 86.0124 55.8715 143.591 49.5122C215.566 41.5766 222.881 41.7727 232.142 45.6235C261.558 57.976 251.537 83.118 281.987 103.893C311.63 124.111 360.117 126.898 397.925 111.014C438.432 94.0142 462.434 57.4581 463.11 25.1511C463.911 -17.689 423.281 -37.2766 437.526 -65.9662C445.886 -82.7983 461.618 -79.5479 481.637 -104.705C490.438 -115.736 509.176 -139.273 500.381 -161.532C491 -185.44 454.344 -196.766 427.415 -196.889C420.003 -196.931 404.367 -196.166 349.79 -168.772C287.6 -137.56 286.778 -127.954 261.343 -124.894C229.732 -121.103 200.39 -132.246 170.839 -143.429C140.14 -155.093 137.88 -161.817 111.696 -168.074C97.403 -171.483 70.1186 -177.683 38.2659 -169.775C26.5762 -166.873 -5.86872 -158.873 -19.1321 -135.414C-28.8795 -118.196 -17.7816 -111.21 -23.8463 -88.1686C-30.3194 -63.468 -52.0949 -37.0793 -84.2208 -25.7802C-114.049 -15.3018 -141.946 -21.6515 -157.45 -25.1729C-166.46 -27.2314 -188.144 -32.9777 -231.968 -62.7525C-283.05 -97.504 -282.012 -108.972 -299.572 -114.158C-367.159 -134.015 -538.881 -9.73563 -501.058 88.7675C-482.244 137.728 -417.817 164.277 -375.033 172.325C-306.824 185.167 -248.397 159.538 -205.445 140.683C-204.182 140.13 -202.935 139.578 -201.704 139.014Z" stroke="#303133" stroke-width="0.7" stroke-miterlimit="10"/>
<path d="M-193.799 133.303C-158.15 117.123 -126.934 94.6562 -102.217 67.3922C-45.1531 4.71503 -13.7457 -5.04067 4.75444 0.0578912C29.8269 6.97862 30.9382 41.1286 68.5873 51.7028C78.3056 54.4584 82.7151 53.3955 137.978 47.2914C207.184 39.6667 214.196 39.8281 223.082 43.5542C251.366 55.4255 241.718 79.5858 271.008 99.5569C299.556 118.982 346.074 121.665 382.451 106.398C421.39 90.0641 444.457 54.9303 445.036 23.8709C445.81 -17.2942 406.764 -36.1054 420.463 -63.6268C428.53 -79.8196 443.605 -76.6893 462.872 -100.867C471.315 -111.471 489.328 -134.085 480.939 -155.492C471.921 -178.493 436.676 -189.395 410.78 -189.449C403.669 -189.483 388.63 -188.756 336.187 -162.429C276.418 -132.437 275.628 -123.198 251.162 -120.252C220.786 -116.608 192.587 -127.324 164.191 -138.122C134.685 -149.335 132.511 -155.796 107.344 -161.806C93.6148 -165.09 67.3941 -171.047 36.7783 -163.446C25.553 -160.655 -5.63589 -152.923 -18.3818 -130.415C-27.7623 -113.882 -17.0829 -107.166 -22.9083 -85.0035C-29.1356 -61.29 -50.0672 -35.9132 -80.8736 -25.0622C-109.551 -14.9808 -136.354 -21.0898 -151.262 -24.4871C-159.917 -26.4603 -180.767 -32.0571 -222.873 -60.6053C-271.95 -93.9189 -270.97 -104.979 -287.817 -109.953C-352.815 -129.098 -517.865 -9.65517 -481.53 85.0158C-463.45 132.067 -401.53 157.588 -360.416 165.324C-294.858 177.659 -238.713 153.026 -197.419 134.909L-193.799 133.303Z" stroke="#303133" stroke-width="0.67" stroke-miterlimit="10"/>
<path d="M-185.893 127.592C-151.694 112.064 -121.745 90.5117 -98.0259 64.3594C-43.2388 4.20192 -13.1386 -5.14679 4.60678 -0.189161C28.669 6.37749 29.7285 39.2083 65.7925 49.357C75.1849 51.9985 79.3297 50.9793 132.371 45.1244C198.761 37.8137 205.488 37.9663 214.029 41.5389C241.15 52.9309 231.907 76.1208 260.005 95.2906C287.331 113.929 332.039 116.498 366.938 101.852C404.29 86.1719 426.439 52.4594 426.987 22.6704C427.731 -16.8332 390.268 -34.8814 403.412 -61.3419C411.184 -76.9358 425.678 -73.9439 444.101 -97.1102C452.218 -107.288 469.49 -128.978 461.432 -149.489C452.797 -171.542 418.983 -181.969 394.156 -182.091C387.328 -182.129 372.903 -181.428 322.579 -156.166C265.233 -127.381 264.472 -118.521 241.006 -115.707C211.866 -112.208 184.81 -122.484 157.543 -132.842C129.245 -143.605 127.173 -149.802 103.007 -155.566C89.8366 -158.777 64.6687 -164.437 35.3056 -157.146C24.4817 -154.46 -5.39173 -147.042 -17.6166 -125.444C-26.6122 -109.57 -16.3839 -103.136 -21.9554 -81.866C-27.8707 -59.1035 -48.0235 -34.7612 -77.6362 -24.3505C-105.228 -14.6755 -130.871 -20.5343 -145.167 -23.7951C-153.468 -25.6963 -173.487 -30.9952 -213.886 -58.4509C-260.904 -90.4381 -259.995 -101.035 -276.204 -105.766C-338.524 -124.083 -496.866 -9.42487 -461.991 81.3582C-444.646 126.513 -385.234 150.979 -345.789 158.416C-282.881 170.258 -229.019 146.62 -189.399 129.231L-185.893 127.592Z" stroke="#303133" stroke-width="0.65" stroke-miterlimit="10"/>
<path d="M-178 121.908C-145.237 107.042 -116.548 86.3966 -93.8349 61.3402C-41.3992 3.74754 -12.529 -5.21263 4.4657 -0.531131C27.5136 5.81662 28.5266 37.2066 63.1311 46.9218C72.1348 49.453 76.109 48.4717 126.913 42.867C190.503 35.8692 196.943 35.9995 205.109 39.4341C231.098 50.3448 222.212 72.554 249.085 90.8975C275.269 108.759 318.072 111.219 351.508 97.1919C387.292 82.1788 408.49 49.8895 409.021 21.3566C409.738 -16.472 373.856 -33.7706 386.434 -59.1157C393.811 -73.9827 407.71 -71.1149 425.394 -93.3302C433.17 -103.081 449.715 -123.861 441.999 -143.531C433.718 -164.595 401.372 -174.683 377.56 -174.748C371.016 -174.791 357.207 -174.102 309 -149.919C254.075 -122.354 253.362 -113.861 230.876 -111.217C202.955 -107.864 177.043 -117.713 150.934 -127.645C123.829 -137.945 121.843 -143.877 98.7096 -149.396C86.0936 -152.413 61.9871 -157.857 33.8102 -150.911C23.482 -148.338 -5.1702 -141.227 -16.891 -120.551C-25.5028 -105.349 -15.693 -99.1856 -21.0431 -78.8205C-26.7731 -57.0143 -45.989 -33.7032 -74.3764 -23.7347C-100.724 -14.4626 -125.35 -20.0758 -139.097 -23.1961C-147.043 -25.0119 -166.205 -30.0953 -204.908 -56.3904C-250.008 -87.0287 -249.076 -97.1814 -264.59 -101.728C-324.284 -119.28 -475.959 -9.51263 -442.535 77.4899C-425.925 120.735 -369.02 144.172 -331.246 151.284C-270.987 162.634 -219.408 139.991 -181.461 123.342C-180.191 122.87 -179.081 122.382 -178 121.908Z" stroke="#303133" stroke-width="0.62" stroke-miterlimit="10"/>
<path d="M-170.095 116.17C-138.777 101.958 -111.355 82.2204 -89.6462 58.2672C-39.5171 3.20967 -11.924 -5.35896 4.32583 -0.886488C26.3548 5.1887 27.3259 35.1915 60.4081 44.4772C69.0073 46.8992 72.8111 45.9557 121.363 40.6021C182.15 33.9039 188.307 34.0388 196.128 37.3199C220.969 47.7502 212.503 68.9747 238.216 86.5149C263.241 103.586 304.17 105.936 336.128 92.5293C370.329 78.2105 390.638 47.3137 391.105 20.0397C391.791 -16.1407 357.478 -32.6619 369.509 -56.8522C376.564 -71.0645 389.852 -68.3199 406.768 -89.5552C414.186 -98.8788 430.007 -118.736 422.634 -137.536C414.715 -157.719 383.711 -167.272 361.035 -167.355C354.713 -167.385 341.579 -166.739 295.507 -143.623C243.003 -117.278 242.3 -109.204 220.824 -106.584C194.138 -103.376 169.372 -112.759 144.405 -122.277C118.493 -132.127 116.593 -137.795 94.4751 -143.082C82.4084 -145.958 59.3789 -151.187 32.4872 -144.539C22.6222 -142.09 -4.77852 -135.301 -15.9772 -115.522C-24.1907 -101.007 -14.8308 -95.1113 -19.9427 -75.6384C-25.4247 -54.7926 -43.7979 -32.5065 -70.9275 -22.9688C-96.1111 -14.1216 -119.594 -19.4835 -132.745 -22.4663C-140.353 -24.2092 -158.673 -29.0628 -195.664 -54.1983C-238.766 -83.4793 -237.889 -93.1831 -252.708 -97.5442C-309.773 -114.306 -454.763 -9.38921 -422.821 73.8483C-406.929 115.182 -352.5 137.59 -316.411 144.39C-258.834 155.236 -209.511 133.546 -173.249 117.679L-170.095 116.17Z" stroke="#303133" stroke-width="0.59" stroke-miterlimit="10"/>
<path d="M-162.186 110.472C-132.325 96.9278 -106.169 78.1233 -85.4491 55.3017C-37.6255 2.79263 -11.3094 -5.38445 4.19552 -1.12101C25.2358 4.66618 26.1494 33.2827 57.6947 42.1534C65.8894 44.4661 69.5228 43.5605 115.821 38.4581C173.714 32.0788 179.68 32.1988 187.12 35.2748C210.813 45.2249 202.735 65.4665 227.273 82.2044C251.139 98.4856 290.179 100.727 320.675 87.9388C353.287 74.2472 372.632 44.8016 373.098 18.7827C373.742 -15.7083 341.027 -31.481 352.489 -54.5826C359.206 -68.1392 371.881 -65.5311 388.015 -85.7856C395.139 -94.6722 410.186 -113.616 403.156 -131.562C395.603 -150.809 366.074 -159.93 344.391 -160.036C338.433 -160.062 325.835 -159.436 281.881 -137.386C231.8 -112.248 231.15 -104.474 210.714 -102.055C185.248 -98.9923 161.623 -107.975 137.818 -117.028C113.099 -126.413 111.253 -131.828 90.1986 -136.872C78.6801 -139.622 56.7144 -144.608 31.062 -138.241C21.6455 -135.901 -4.50253 -129.422 -15.1657 -110.567C-23.01 -96.7097 -14.0685 -91.0844 -18.9614 -72.543C-24.1797 -52.6586 -41.7113 -31.4112 -67.5831 -22.3043C-91.6008 -13.855 -114.069 -18.9847 -126.558 -21.8205C-133.811 -23.478 -151.292 -28.1151 -186.57 -52.091C-227.691 -80.0271 -226.839 -89.2841 -240.991 -93.4312C-295.434 -109.469 -433.732 -9.33626 -403.267 70.0009C-388.111 109.425 -336.234 130.807 -301.769 137.293C-246.843 147.632 -199.797 126.991 -165.197 111.81L-162.186 110.472Z" stroke="#303133" stroke-width="0.56" stroke-miterlimit="10"/>
<path d="M-154.281 104.761C-125.864 91.8506 -100.977 73.9365 -81.2652 52.2021C-35.7494 2.21464 -10.7091 -5.55746 4.09804 -1.50605C24.1001 3.96932 24.991 31.2379 55.0768 39.6751C62.8828 41.8776 66.2526 41.0292 110.407 36.1576C165.594 30.0853 171.18 30.2024 178.281 33.192C200.827 42.6618 193.138 61.9341 216.482 77.8437C239.205 93.334 276.357 95.4792 305.42 83.2952C336.464 70.2701 354.86 42.2612 355.324 17.4973C355.939 -15.3321 324.807 -30.3418 335.718 -52.3289C342.129 -65.2318 354.178 -62.7457 369.465 -82.0154C376.21 -90.5405 390.568 -108.51 383.884 -125.573C376.695 -143.899 348.595 -152.571 327.955 -152.675C322.283 -152.693 310.296 -152.106 268.462 -131.122C220.801 -107.203 220.179 -99.8365 200.669 -97.4897C176.451 -94.6007 153.972 -103.13 131.311 -111.742C107.785 -120.678 106.056 -125.83 85.9872 -130.627C75.0337 -133.236 54.1259 -138.047 29.7151 -131.934C20.7628 -129.705 -4.10121 -123.537 -14.2748 -105.591C-21.751 -92.4041 -13.2437 -87.0481 -17.8815 -69.3866C-22.8517 -50.4625 -39.5395 -30.2267 -64.1558 -21.5774C-87.0244 -13.5386 -108.396 -18.4141 -120.274 -21.1134C-127.189 -22.6979 -143.812 -27.1062 -177.389 -49.8679C-216.511 -76.4467 -215.711 -85.2146 -229.172 -89.2167C-281.047 -104.432 -412.583 -9.18287 -383.588 66.3345C-369.182 103.863 -319.797 124.203 -287.003 130.363C-234.728 140.196 -189.917 120.547 -157.038 106.11L-154.281 104.761Z" stroke="#303133" stroke-width="0.54" stroke-miterlimit="10"/>
<path d="M-146.39 99.0506C-119.415 86.7997 -95.794 69.7931 -77.0921 49.157C-33.8347 1.71512 -10.1343 -5.66143 3.86638 -1.80163C22.8518 3.42801 23.6863 29.3238 52.198 37.2808C59.5996 39.3741 62.8774 38.5585 104.716 33.942C157.086 28.1703 162.404 28.291 169.127 31.1157C190.541 40.1042 183.241 58.3937 205.409 73.501C226.957 88.2024 262.157 90.2422 289.757 78.6774C319.232 66.3189 336.692 39.7188 337.141 16.2244C337.727 -14.9434 308.164 -29.1623 318.523 -50.0617C324.612 -62.3099 336.049 -59.947 350.632 -78.2407C357.025 -86.2712 370.652 -103.384 364.295 -119.591C357.503 -136.985 330.909 -145.239 311.249 -145.339C305.86 -145.36 294.488 -144.799 254.788 -124.882C209.55 -102.17 208.942 -95.1819 190.431 -92.9661C167.439 -90.155 146.098 -98.3114 124.597 -106.485C102.263 -114.969 100.626 -119.804 81.5682 -124.408C71.1786 -126.892 51.3235 -131.405 28.1607 -125.655C19.657 -123.536 -3.93871 -117.677 -13.5925 -100.655C-20.6838 -88.1269 -12.6119 -83.0536 -17.0115 -66.2843C-21.765 -48.3185 -37.5798 -29.1233 -60.9383 -20.9049C-82.6423 -13.2774 -102.933 -17.8978 -114.215 -20.473C-120.758 -21.9597 -136.557 -26.1505 -168.427 -47.8063C-205.568 -73.0402 -204.811 -81.4006 -217.587 -85.1628C-266.74 -99.5801 -391.671 -9.2034 -364.149 62.4539C-350.482 98.0187 -303.6 117.384 -272.475 123.245C-222.864 132.587 -180.368 113.935 -149.116 100.222L-146.39 99.0506Z" stroke="#303133" stroke-width="0.51" stroke-miterlimit="10"/>
<path d="M-138.485 93.3395C-112.948 81.7438 -90.5842 65.6502 -72.8706 46.1225C-31.9983 1.22065 -9.465 -5.77139 3.75935 -2.11862C21.7258 2.83845 22.5137 27.2934 49.492 34.8756C56.5037 36.8452 59.6123 36.0809 99.214 31.7146C148.783 26.2558 153.801 26.3687 160.178 29.0398C180.429 37.549 173.486 54.8578 194.51 69.1608C214.946 83.0692 248.288 84.9978 274.347 74.0572C302.236 62.3527 318.779 37.1874 319.194 14.9365C319.783 -14.5583 291.754 -28.038 301.58 -47.7971C307.332 -59.3762 318.142 -57.1487 331.957 -74.4626C338.008 -82.0665 350.909 -98.2563 344.897 -113.595C338.44 -130.051 313.196 -137.852 294.658 -137.942C289.554 -137.968 278.795 -137.433 241.214 -118.581C198.397 -97.0887 197.852 -90.4691 180.311 -88.3689C158.549 -85.7574 138.355 -93.4336 117.998 -101.167C96.8571 -109.201 95.3168 -113.826 77.2808 -118.131C67.4393 -120.488 48.648 -124.758 26.7221 -119.316C18.6827 -117.307 -3.66155 -111.771 -12.7932 -95.6453C-19.5176 -83.8019 -11.8629 -78.9854 -16.0413 -63.1208C-20.4996 -46.1184 -35.4875 -27.9473 -57.6051 -20.1721C-78.1588 -12.9416 -97.3545 -17.3212 -108.025 -19.76C-114.23 -21.1737 -129.173 -25.1625 -159.344 -45.6309C-194.503 -69.5065 -193.708 -77.424 -205.866 -80.9826C-252.409 -94.6482 -370.635 -9.08332 -344.601 58.7284C-331.649 92.436 -287.278 110.72 -257.824 116.255C-210.863 125.104 -170.634 107.447 -141.055 94.4745L-138.485 93.3395Z" stroke="#303133" stroke-width="0.48" stroke-miterlimit="10"/>
<path d="M-130.61 87.63C-106.518 76.6895 -85.4209 61.5041 -68.7131 43.0783C-30.1463 0.724935 -8.92144 -5.87355 3.58946 -2.43181C20.5358 2.23926 21.283 25.3204 46.739 32.4731C53.3463 34.3335 56.3158 33.605 93.6332 29.4919C140.402 24.3461 145.15 24.4491 151.151 26.9687C170.27 34.9967 163.762 51.3198 183.547 64.8243C202.794 77.9448 234.293 79.761 258.878 69.481C285.198 58.443 300.79 34.701 301.188 13.7061C301.702 -14.1241 275.303 -26.8438 284.564 -45.4739C289.93 -56.4078 300.207 -54.3084 313.222 -70.6404C318.916 -77.8168 331.107 -93.0978 325.439 -107.567C319.347 -123.089 295.533 -130.441 278.038 -130.53C273.297 -130.552 263.072 -130.051 227.625 -112.266C187.214 -91.9924 186.683 -85.7515 170.081 -83.7515C149.555 -81.286 130.488 -88.5346 111.291 -95.8289C91.3425 -103.413 89.8884 -107.773 72.8689 -111.832C63.5925 -114.049 45.8649 -118.077 25.1759 -112.943C17.5793 -111.111 -3.492 -105.831 -12.1038 -90.629C-18.4422 -79.4309 -11.2398 -74.9095 -15.163 -59.9248C-19.3744 -43.8961 -33.5195 -26.7502 -54.3949 -19.4048C-73.7694 -12.6001 -91.8845 -16.7246 -101.963 -19.0795C-107.813 -20.4078 -121.914 -24.1533 -150.375 -43.4889C-183.488 -66.0102 -182.747 -73.4521 -194.157 -76.7748C-238.059 -89.6773 -349.614 -8.94902 -325.035 55.0419C-312.786 86.8376 -270.954 104.082 -243.169 109.319C-198.859 117.661 -160.912 101.013 -133.002 88.8211L-130.61 87.63Z" stroke="#303133" stroke-width="0.45" stroke-miterlimit="10"/>
<path d="M-122.668 81.957C-100.02 71.6784 -80.1882 57.4053 -64.4869 40.0839C-28.2279 0.252135 -8.27889 -5.94135 3.47143 -2.70765C19.4134 1.67644 20.1199 23.3837 44.0378 30.108C50.2563 31.8582 53.0094 31.1839 88.1356 27.3045C132.103 22.4583 136.551 22.5669 142.207 24.9331C160.241 32.4767 154.043 47.822 172.652 60.5107C190.756 72.8537 220.35 74.5617 243.469 64.8606C268.203 54.4767 282.861 32.157 283.241 12.4047C283.725 -13.7639 258.91 -25.7072 267.616 -43.2765C272.707 -53.5587 282.312 -51.565 294.558 -66.9305C299.927 -73.6679 311.36 -88.0371 306.036 -101.638C300.309 -116.239 277.923 -123.155 261.503 -123.231C256.983 -123.254 247.436 -122.782 214.029 -106.058C176.055 -86.9919 175.555 -81.1308 160.015 -79.2657C140.708 -76.9453 122.802 -83.7549 104.75 -90.5957C86.0093 -97.73 84.6257 -101.825 68.6845 -105.656C59.9575 -107.733 43.2936 -111.518 23.8415 -106.691C16.7005 -104.888 -3.10941 -99.9989 -11.216 -85.7062C-17.1717 -75.1936 -10.3855 -70.9157 -14.0886 -56.849C-18.0339 -41.7548 -31.3386 -25.6609 -50.9575 -18.7597C-69.1661 -12.353 -86.2016 -16.2357 -95.6788 -18.3995C-101.175 -19.6558 -114.419 -23.1724 -141.183 -41.3475C-172.363 -62.5209 -171.71 -69.5387 -182.443 -72.7022C-223.719 -84.827 -328.539 -8.93937 -305.483 51.1677C-294 81.0689 -254.66 97.2706 -228.529 102.194C-186.869 110.031 -151.205 94.3774 -124.973 82.8727L-122.668 81.957Z" stroke="#303133" stroke-width="0.43" stroke-miterlimit="10"/>
<path d="M-114.78 76.2062C-93.5716 66.5834 -75.0011 53.2182 -60.3004 36.9974C-26.3434 -0.245605 -7.67491 -6.08782 3.33171 -3.04973C18.2547 1.06179 18.9025 21.3694 41.3138 27.6632C47.1279 29.3042 49.7105 28.6677 82.5837 25.0395C123.751 20.5063 128.007 20.5866 133.209 22.8197C150.029 29.8468 144.302 44.258 161.715 56.0917C178.66 67.6447 206.381 69.2424 228.022 60.1616C251.171 50.4452 264.847 29.5507 265.243 11.0659C265.716 -13.4152 242.483 -24.609 250.626 -41.0225C255.412 -50.6376 264.389 -48.7794 275.852 -63.164C280.878 -69.4748 291.508 -82.9159 286.59 -95.6653C281.229 -109.331 260.271 -115.798 244.879 -115.872C240.643 -115.9 231.709 -115.453 200.468 -99.798C164.916 -81.9523 164.447 -76.4575 149.908 -74.71C131.836 -72.5356 115.057 -78.9175 98.1637 -85.3327C80.6166 -92.0032 79.318 -95.8474 64.351 -99.3759C56.1879 -101.326 40.5879 -104.868 22.3727 -100.35C15.6936 -98.6844 -2.86261 -94.0908 -10.4493 -80.7218C-16.0248 -70.9216 -9.67158 -66.8995 -13.1353 -53.7116C-16.8506 -39.6037 -29.2945 -24.509 -47.6567 -18.052C-64.7162 -12.0557 -80.6242 -15.6863 -89.5205 -17.7115C-94.6775 -18.8815 -107.08 -22.1682 -132.133 -39.1972C-161.315 -59.0267 -160.719 -65.5956 -170.754 -68.547C-209.368 -79.8561 -307.551 -8.84335 -285.915 47.4812C-275.167 75.4725 -238.334 90.646 -213.826 95.2547C-174.832 102.586 -141.433 87.9536 -116.861 77.1617L-114.78 76.2062Z" stroke="#303133" stroke-width="0.4" stroke-miterlimit="10"/>
<path d="M-106.827 70.4921C-87.0646 61.5277 -69.7605 49.0755 -56.0628 33.9618C-24.4317 -0.785343 -7.02107 -6.19675 3.24068 -3.36769C17.1436 0.45784 17.7506 19.3917 38.6239 25.257C44.0649 26.7867 46.4613 26.1891 77.0975 22.8111C115.464 18.5908 119.388 18.6652 124.308 20.7408C139.983 27.3144 134.642 40.7161 150.866 51.7887C166.669 62.5508 192.48 63.9865 212.662 55.5787C234.241 46.5153 247.03 27.0402 247.347 9.82873C247.776 -12.9898 226.126 -23.4206 233.641 -38.7012C238.104 -47.675 246.469 -45.9399 257.118 -59.3416C261.802 -65.2259 271.779 -77.8158 267.114 -89.6637C262.117 -102.408 242.589 -108.426 228.239 -108.499C224.304 -108.519 215.967 -108.11 186.892 -93.5237C153.761 -76.898 153.323 -71.7695 139.754 -70.1377C122.916 -68.1227 107.281 -74.0646 91.4992 -80.0511C75.1614 -86.2587 73.9334 -89.8375 59.9784 -93.174C52.524 -94.967 37.9237 -98.276 21.0094 -94.0566C14.826 -92.503 -2.5089 -88.2164 -9.57348 -75.7442C-14.7617 -66.5758 -8.84497 -62.8498 -12.1188 -50.5646C-15.586 -37.417 -27.1245 -23.3515 -44.2929 -17.3347C-60.1877 -11.7498 -75.0463 -15.1232 -83.3148 -17.013C-88.1447 -18.0553 -99.6634 -21.1688 -122.972 -37.0402C-150.176 -55.5517 -149.617 -61.646 -158.975 -64.438C-194.982 -75.0221 -286.475 -8.8068 -266.312 43.6712C-256.299 69.7526 -221.972 83.898 -199.245 88.1881C-162.9 95.0399 -131.77 81.3751 -108.886 71.3382L-106.827 70.4921Z" stroke="#303133" stroke-width="0.37" stroke-miterlimit="10"/>
<path d="M-98.9681 64.7839C-80.6566 56.4672 -64.6208 44.9244 -51.9213 30.9189C-22.5956 -1.27984 -6.46191 -6.29974 3.05497 -3.67971C16.0017 -0.130742 16.504 17.42 35.855 22.8558C40.8916 24.2763 43.1042 23.7443 71.5165 20.5886C107.066 16.6689 110.674 16.7498 115.233 18.673C129.776 24.7653 124.824 37.1842 139.856 47.442C154.501 57.4276 178.443 58.8067 197.142 50.9654C217.136 42.5695 228.991 24.5167 229.291 8.56126C229.691 -12.5957 209.624 -22.2635 216.667 -36.4346C220.788 -44.793 228.562 -43.1416 238.458 -55.5645C242.722 -61.0172 252.043 -72.6208 247.734 -83.6413C243.099 -95.4912 224.998 -101.087 211.697 -101.092C208.046 -101.116 200.323 -100.733 173.413 -87.2153C142.707 -71.7693 142.297 -67.0473 129.727 -65.5465C114.094 -63.6621 99.6334 -69.1793 85.0433 -74.7289C69.8798 -80.5118 68.7719 -83.8014 55.8335 -86.8921C48.7678 -88.575 35.294 -91.6451 19.5695 -87.7308C13.8021 -86.2981 -2.23072 -82.2967 -8.77666 -70.7615C-13.5969 -62.2643 -8.11547 -58.821 -11.104 -47.431C-14.3074 -35.2447 -25.0549 -22.255 -40.9148 -16.6318C-55.6595 -11.4438 -69.4242 -14.59 -77.0793 -16.3298C-81.5322 -17.3961 -92.2483 -20.1828 -113.892 -34.8916C-139.08 -52.0199 -138.579 -57.6923 -147.253 -60.2444C-180.68 -70.048 -265.486 -8.67026 -246.814 39.9218C-237.52 64.0924 -205.652 77.2066 -184.58 81.1836C-150.854 87.5272 -122.037 74.8731 -100.829 65.5499L-98.9681 64.7839Z" stroke="#303133" stroke-width="0.35" stroke-miterlimit="10"/>
<path d="M-91.0761 59.0737C-74.2021 51.4205 -59.4264 40.7896 -47.7293 27.8863C-20.7115 -1.79078 -5.83796 -6.40667 2.91834 -3.99467C14.7845 -0.700857 15.3077 15.4586 33.1351 20.4515C37.7673 21.7628 39.8083 21.2552 65.9689 18.3641C98.7334 14.7564 101.994 14.8325 106.255 16.5991C119.635 22.2122 115.065 33.5812 128.943 43.1028C142.382 52.3014 164.465 53.5692 181.687 46.3482C200.127 38.6044 211.047 21.9738 211.314 7.27541C211.686 -12.2065 193.202 -21.1114 199.679 -34.1669C203.481 -41.8303 210.641 -40.3424 219.754 -51.7843C223.754 -56.8155 232.27 -67.5043 228.306 -77.6426C224.041 -88.5175 207.354 -93.6638 195.106 -93.7218C191.74 -93.7372 184.63 -93.3931 159.792 -80.938C131.505 -66.7388 131.143 -62.3707 119.559 -60.9731C105.176 -59.2491 91.8277 -64.3243 78.3816 -69.4338C64.4287 -74.7405 63.4359 -77.7945 51.4827 -80.6375C45.028 -82.1973 32.5721 -85.0083 18.0834 -81.4154C12.7645 -80.0922 -2.01801 -76.4266 -8.02609 -65.7893C-12.4614 -57.9507 -7.41411 -54.7767 -10.1656 -44.2924C-13.1198 -33.0531 -23.0211 -21.0482 -37.7065 -15.9045C-51.2719 -11.1423 -63.956 -14.0333 -71.0147 -15.6357C-75.109 -16.5763 -84.9884 -19.1868 -104.904 -32.737C-128.141 -48.505 -127.665 -53.7439 -135.657 -56.0831C-166.459 -65.1225 -244.514 -8.58643 -227.309 36.2261C-218.75 58.5002 -189.437 70.5759 -169.988 74.2378C-138.943 80.0772 -112.378 68.4163 -92.8218 59.8863C-92.2661 59.6171 -91.6842 59.3462 -91.0761 59.0737Z" stroke="#303133" stroke-width="0.32" stroke-miterlimit="10"/>
<path d="M-83.1721 53.3631C-67.7392 46.3636 -54.2251 36.6408 -43.5266 24.8398C-18.83 -2.28774 -5.18642 -6.51509 2.76333 -4.29471C13.6227 -1.31472 14.1053 13.471 30.3959 18.0488C34.6381 19.2364 36.5098 18.7801 60.4332 16.1392C90.3851 12.8857 93.4201 12.9086 97.2733 14.5258C109.505 19.6586 105.33 30.1254 118.01 38.765C130.337 47.1707 150.438 48.3353 166.242 41.7171C183.098 34.6542 193.084 19.4459 193.335 6.00349C193.662 -11.8158 176.763 -19.9309 182.687 -31.8987C186.171 -38.8672 192.716 -37.5426 201.046 -48.0037C204.705 -52.5949 212.43 -62.3833 208.874 -71.6569C204.959 -81.596 189.715 -86.3078 178.511 -86.3512C175.429 -86.3712 168.933 -86.0526 146.229 -74.6643C120.363 -61.685 120.023 -57.6152 109.434 -56.4022C96.2863 -54.8242 84.0809 -59.4728 71.7789 -64.1423C59.0184 -68.9985 58.0805 -71.7861 47.191 -74.3864C41.2531 -75.817 29.908 -78.3883 16.6527 -75.1437C11.7982 -73.931 -1.70153 -70.5899 -7.21888 -60.8474C-11.3344 -53.6904 -6.65855 -50.7896 -9.18751 -41.1965C-11.8779 -30.9185 -20.9365 -19.9388 -34.3024 -15.2433C-46.7019 -10.8791 -58.3065 -13.5284 -64.753 -14.9942C-68.5081 -15.8485 -77.5303 -18.2301 -95.7506 -30.6332C-116.99 -45.0573 -116.554 -49.8349 -123.866 -51.9879C-151.978 -60.2537 -223.409 -8.55128 -207.675 32.4281C-199.851 52.7923 -173.06 63.8409 -155.249 67.1886C-126.887 72.5238 -102.589 61.8571 -84.7108 54.0141L-83.1721 53.3631Z" stroke="#303133" stroke-width="0.29" stroke-miterlimit="10"/>
<path d="M-75.2638 47.6652C-61.2813 41.3138 -49.0356 32.5004 -39.3355 21.8072C-16.9455 -2.78529 -4.62605 -6.61811 2.59454 -4.60776C12.435 -1.90034 12.86 11.4991 27.644 15.6464C31.4841 16.7517 33.1829 16.3064 54.8692 13.9156C82.016 10.9214 84.7549 10.9902 88.2473 12.4549C99.3506 17.1466 95.5607 26.5904 107.048 34.4153C118.217 42.0444 136.507 43.0947 150.77 37.1007C166.013 30.7342 175.093 16.9193 175.327 4.73296C175.62 -11.4784 160.307 -18.8037 165.683 -29.6168C168.826 -35.9698 174.715 -34.7384 182.313 -44.1679C185.631 -48.3326 192.71 -57.2028 189.403 -65.6017C185.869 -74.6203 172.054 -78.8833 161.893 -78.9255C159.11 -78.951 153.212 -78.657 132.628 -68.3345C109.184 -56.5617 108.868 -52.9387 99.3156 -51.7917C87.3873 -50.3587 76.3262 -54.5672 65.1841 -58.7977C53.616 -63.2035 52.7642 -65.7266 42.8902 -68.0946C37.5028 -69.3714 27.2203 -71.7133 15.2054 -68.7365C10.7994 -67.6332 -1.43185 -64.6022 -6.42821 -55.7699C-10.1129 -49.2879 -5.93407 -46.6524 -8.21028 -37.9661C-10.6526 -28.6484 -18.8685 -18.6938 -30.9777 -14.4426C-42.2282 -10.4888 -52.7365 -12.8839 -58.5865 -14.2122C-61.9878 -14.9945 -70.1697 -17.1596 -86.6765 -28.3897C-105.935 -41.469 -105.57 -45.7968 -112.168 -47.7387C-137.638 -55.2279 -202.399 -8.37559 -188.121 28.7696C-181.032 47.2105 -156.748 57.2309 -140.608 60.2665C-114.911 65.1099 -92.8626 55.45 -76.6745 48.3351L-75.2638 47.6652Z" stroke="#303133" stroke-width="0.26" stroke-miterlimit="10"/>
<path d="M-67.3536 42.0077C-54.8195 36.3067 -43.8415 28.4023 -35.1423 18.8149C-15.0735 -3.22806 -4.01537 -6.67033 2.49177 -4.87101C11.3132 -2.43616 11.6492 9.57909 24.9423 13.295C28.3914 14.2632 29.9064 13.8835 49.3555 11.7429C73.7019 9.06165 76.1714 9.12057 79.2558 10.4358C89.1922 14.6079 85.8099 23.1082 96.1053 30.1318C106.179 36.967 122.515 37.8986 135.318 32.5372C141.712 29.8125 147.136 25.6765 151.029 20.5579C154.921 15.4394 157.141 9.52459 157.456 3.42675C157.774 -11.0589 143.99 -17.6853 148.801 -27.3829C151.637 -33.0822 156.949 -31.9491 163.725 -40.4762C166.701 -44.2143 173.037 -52.1737 170.075 -59.7039C166.907 -67.7744 154.505 -71.6008 145.341 -71.6254C142.845 -71.6287 137.559 -71.3736 119.109 -62.1178C98.0708 -51.564 97.8016 -48.3084 89.2032 -47.2759C78.5102 -45.9889 68.592 -49.7709 58.6411 -53.5643C48.2666 -57.5062 47.5 -59.7784 38.6425 -61.9006C30.6067 -64.1303 21.9875 -64.3274 13.8235 -62.4683C9.86488 -61.488 -1.10275 -58.8206 -5.59034 -50.8573C-8.87434 -45.035 -5.13084 -42.6822 -7.16768 -34.8747C-8.42544 -30.2491 -10.9251 -25.9367 -14.4693 -22.2782C-18.0134 -18.6196 -22.5049 -15.7152 -27.589 -13.7943C-37.6736 -10.2385 -47.1024 -12.3918 -52.3548 -13.5692C-55.3854 -14.2672 -62.727 -16.2158 -77.5372 -26.2854C-94.8135 -38.0063 -94.4566 -41.8882 -100.391 -43.643C-123.228 -50.2875 -181.308 -8.33995 -168.516 24.973C-162.145 41.5299 -140.37 50.4954 -125.9 53.2188C-102.836 57.5685 -83.0879 48.8914 -68.573 42.5171L-67.3536 42.0077Z" stroke="#303133" stroke-width="0.24" stroke-miterlimit="10"/>
<path d="M-59.466 36.2436C-48.3682 31.2078 -38.6498 24.215 -30.9548 15.7285C-13.1926 -3.77949 -3.41042 -6.81679 2.34717 -5.28017C10.1532 -3.07764 10.4909 7.50713 22.2145 10.7965C25.2591 11.6555 26.6049 11.327 43.8156 9.42325C65.346 7.05595 67.5304 7.10601 70.3011 8.26577C79.1056 11.9566 76.1115 19.4742 85.2155 25.6963C94.3196 31.9185 108.594 32.5763 119.917 27.8218C125.541 25.4022 130.31 21.7473 133.734 17.2326C137.158 12.7179 139.114 7.50597 139.4 2.13221C139.642 -10.6755 127.473 -16.5408 131.749 -25.1249C134.249 -30.1552 138.946 -29.1853 144.952 -36.7595C147.586 -40.071 153.197 -47.1072 150.579 -53.7687C147.776 -60.9177 136.802 -64.3087 128.742 -64.3495C126.53 -64.3573 121.858 -64.1278 105.527 -55.9378C86.9265 -46.5915 86.6716 -43.7146 79.0571 -42.8122C69.6779 -41.6762 60.8253 -45.0131 51.9872 -48.3645C42.8075 -51.8291 42.1246 -53.8637 34.2995 -55.7412C27.1749 -57.6928 19.5411 -57.8402 12.3206 -56.1656C8.82624 -55.2958 -0.885262 -52.8972 -4.85538 -45.8843C-7.77133 -40.7332 -4.44627 -38.6506 -6.26179 -31.7477C-7.36375 -27.6481 -9.56923 -23.8244 -12.7033 -20.5801C-15.8373 -17.3358 -19.8135 -14.7602 -24.3164 -13.0578C-33.2519 -9.91241 -41.5844 -11.8116 -46.2258 -12.8659C-48.9183 -13.4909 -55.4185 -15.2097 -68.5164 -24.1196C-83.7958 -34.4967 -83.4789 -37.9308 -88.81 -39.4675C-109.043 -45.414 -160.334 -8.2295 -149.094 21.2419C-143.458 35.8888 -124.189 43.8262 -111.389 46.2375C-90.9915 50.082 -73.509 42.4125 -60.6527 36.7643L-59.466 36.2436Z" stroke="#303133" stroke-width="0.21" stroke-miterlimit="10"/>
<path d="M-51.5603 30.5323C-41.9094 26.149 -33.4583 20.0648 -26.7662 12.6824C-11.3107 -4.29045 -2.80427 -6.92278 2.19625 -5.55394C8.99435 -3.67866 9.29484 5.57256 19.4804 8.43346C22.1363 9.1822 23.3115 8.89158 38.3323 7.23498C57.1082 5.16423 58.976 5.2074 61.3871 6.2281C69.044 9.43866 66.4236 15.9879 74.3508 21.3943C82.278 26.8007 94.6813 27.375 104.526 23.2408C109.428 21.1407 113.587 17.9637 116.577 14.0363C119.566 10.1088 121.277 5.57237 121.535 0.892971C121.733 -10.2521 111.163 -15.3555 114.873 -22.8107C117.05 -27.1996 121.136 -26.3529 126.348 -32.8914C128.643 -35.7362 133.463 -41.8854 131.252 -47.6822C128.798 -53.9088 119.269 -56.8519 112.251 -56.8916C110.323 -56.9039 106.265 -56.6999 92.0525 -49.5757C75.8736 -41.4493 75.6017 -38.9492 69.0363 -38.1539C60.8138 -37.1589 53.1837 -40.0608 45.4886 -42.9856C37.4989 -46.0266 36.9204 -47.771 30.0962 -49.4017C23.9099 -51.1145 17.2769 -51.2691 10.9905 -49.8469C7.89761 -49.0835 -0.498349 -46.9979 -3.94866 -40.9087C-6.48085 -36.4297 -3.58885 -34.6029 -5.16733 -28.6057C-6.13571 -25.0456 -8.05873 -21.7263 -10.7849 -18.9093C-13.511 -16.0922 -16.9658 -13.8545 -20.8769 -12.3724C-28.6489 -9.65176 -35.9007 -11.2958 -39.9468 -12.2261C-42.2832 -12.7522 -47.9274 -14.2556 -59.3287 -22.0049C-72.6256 -31.0237 -72.3486 -34.01 -76.9215 -35.3655C-94.5104 -40.522 -139.194 -8.18354 -129.347 17.4496C-124.462 30.1877 -107.684 37.096 -96.5536 39.1951C-78.8071 42.5334 -63.6703 35.8632 -52.4207 30.9919L-51.5603 30.5323Z" stroke="#303133" stroke-width="0.18" stroke-miterlimit="10"/>
<path d="M-43.6554 24.8209C-35.4508 21.096 -28.2661 15.9248 -22.5772 9.64958C-9.42826 -4.78822 -2.19892 -7.02904 2.0579 -5.85581C7.83588 -4.26651 8.09445 3.59751 16.7577 6.02892C19.0092 6.66843 19.9512 6.41963 32.7347 5.0132C48.6631 3.25842 50.2772 3.29076 52.3274 4.15897C58.8838 6.88624 56.6203 12.4547 63.3707 17.0453C70.121 21.6359 80.6542 22.1403 89.0205 18.6262C93.1808 16.8393 96.7077 14.1369 99.238 10.7976C101.768 7.45835 103.21 3.60311 103.415 -0.370743C103.602 -9.82839 94.6134 -14.1823 97.7564 -20.5353C99.6111 -24.2696 103.084 -23.5728 107.531 -29.1046C109.466 -31.5486 113.624 -36.7652 111.679 -41.6883C109.64 -46.9562 101.521 -49.4897 95.5317 -49.5138C93.9514 -49.5213 90.4434 -49.3522 78.3652 -43.2948C64.5918 -36.3874 64.4094 -34.3112 58.7866 -33.5759C51.7981 -32.7403 45.2965 -35.2012 38.76 -37.7003C31.9639 -40.2774 31.4717 -41.7574 25.6484 -43.1414C20.3852 -44.58 14.7477 -44.6902 9.41305 -43.4587C6.83158 -42.8088 -0.358989 -41.0293 -3.29299 -35.904C-5.45714 -32.096 -2.99811 -30.5251 -4.34073 -25.447C-5.1629 -22.4188 -6.79809 -19.5954 -9.11709 -17.1998C-11.4361 -14.8042 -14.3753 -12.902 -17.7028 -11.6434C-24.2932 -9.32177 -30.4657 -10.724 -33.8996 -11.5178C-35.8979 -11.971 -40.7005 -13.2445 -50.4209 -19.8323C-61.7209 -27.5071 -61.484 -30.0455 -65.3748 -31.188C-80.3428 -35.6341 -118.335 -8.07959 -109.959 13.7204C-105.856 24.5515 -91.5371 30.4287 -82.0793 32.1889C-66.9823 35.0344 -54.0486 29.3678 -44.5555 25.1884L-43.6554 24.8209Z" stroke="#303133" stroke-width="0.15" stroke-miterlimit="10"/>
</g>
<g opacity="0.8">
<path d="M295.641 756.303C343.049 738.502 385.488 712.299 420.146 679.43C500.131 603.928 541.402 593.973 564.505 602C595.781 612.872 593.415 656.652 640.41 673.262C652.648 677.572 658.292 676.561 729.682 673.262C819.049 669.127 828.011 669.894 838.971 675.399C873.809 692.881 858.797 723.024 894.03 750.902C928.297 778.059 987.599 785.284 1035.85 768.709C1087.52 750.983 1120.9 707.912 1125.12 668.233C1130.69 615.625 1082.83 588.374 1103.36 554.212C1115.44 534.164 1134.42 539.391 1161.75 510.073C1173.74 497.191 1199.31 469.731 1190.95 441.668C1181.99 411.536 1138.12 394.763 1105.02 392.498C1095.92 391.871 1076.61 391.592 1006.58 421.003C926.774 454.515 924.735 466.305 893.119 468.035C853.861 470.231 818.981 454.224 783.844 438.102C747.414 421.363 745.361 412.93 713.827 403.185C696.625 397.876 663.744 388.084 623.725 395.344C609.053 397.992 568.299 405.368 549.479 433.118C535.65 453.516 548.554 462.959 538.6 490.837C527.98 520.689 498.39 551.436 457.677 562.855C419.875 573.425 386.273 563.435 367.576 557.871C356.697 554.642 330.657 545.872 279.976 505.845C220.919 459.207 223.435 445.152 202.399 437.44C121.462 407.692 -102.99 547.069 -66.9816 671.125C-49.1 732.804 27.2675 770.474 79.0086 783.728C161.495 804.845 236.068 777.92 290.909 758.069C292.473 757.465 294.064 756.907 295.641 756.303Z" stroke="#303133" stroke-miterlimit="10"/>
<path d="M302.889 751.831C349.002 734.517 390.283 709.031 423.994 677.06C501.803 603.579 541.945 593.926 564.409 601.732C594.869 612.267 592.531 654.897 638.248 671.055C650.132 675.248 655.64 674.261 725.086 671.055C812.019 667.036 820.722 667.779 831.383 673.134C865.283 690.093 850.679 719.446 884.892 746.603C918.234 773.029 975.918 780.057 1022.85 763.934C1073.06 746.685 1105.59 704.798 1109.68 666.199C1115.12 615.02 1068.55 588.513 1088.58 555.281C1100.33 535.789 1118.79 540.866 1145.38 512.302C1157.05 499.769 1181.92 473.064 1173.79 445.756C1165.06 416.461 1122.4 400.129 1090.2 397.934C1081.36 397.33 1062.57 397.051 994.439 425.661C916.807 458.254 914.835 469.684 884.076 471.403C845.879 473.541 812.005 457.976 777.779 442.294C742.274 426.032 740.275 417.808 709.611 408.33C692.872 403.161 660.889 393.671 621.957 400.698C607.693 403.277 568.054 410.444 549.737 437.439C536.288 457.279 548.84 466.478 539.185 493.589C528.864 522.629 500.076 552.539 460.478 563.609C423.763 573.877 391.019 564.155 372.838 558.754C362.272 555.618 336.925 547.08 287.618 508.144C230.166 462.773 232.627 449.113 212.148 441.597C133.387 412.709 -84.9451 548.288 -49.957 668.964C-32.5105 728.959 41.8036 765.595 92.117 778.5C172.346 799.037 244.893 772.82 298.238 753.538L302.889 751.831Z" stroke="#303133" stroke-width="0.97" stroke-miterlimit="10"/>
<path d="M310.11 747.347C354.932 730.52 395.054 705.746 427.816 674.667C503.449 603.254 542.462 593.868 564.301 601.488C593.917 611.78 591.647 653.167 636.086 668.86C647.63 672.937 652.974 671.973 720.476 668.86C804.975 664.945 813.447 665.677 823.822 670.881C856.771 687.41 842.574 715.892 875.876 742.294C908.28 767.977 964.346 774.818 1009.97 759.137C1058.77 742.376 1090.39 701.651 1094.36 664.132C1099.63 614.393 1054.39 588.63 1073.85 556.338C1085.27 537.381 1103.22 542.318 1129.07 514.521C1140.42 502.348 1164.58 476.387 1156.68 449.845C1148.19 421.363 1106.72 405.496 1075.43 403.382C1066.84 402.789 1048.57 402.522 982.363 430.33C906.907 462.018 904.976 473.123 875.087 474.795C837.964 476.875 804.989 461.739 771.741 446.5C737.242 430.667 735.312 422.699 705.491 413.488C689.173 408.458 658.142 399.235 620.312 406.077C606.428 408.574 567.904 415.544 550.104 441.784C537.023 461.066 549.234 469.998 539.851 496.377C529.816 524.604 501.776 553.678 463.348 564.434C427.598 574.424 395.833 564.968 378.155 559.718C367.888 556.663 343.248 548.37 295.328 510.525C239.494 466.386 241.874 453.144 221.98 445.849C145.422 417.727 -66.7914 549.543 -32.7959 666.862C-15.8798 725.184 56.3266 760.798 105.239 773.32C183.225 793.241 253.745 767.756 305.609 749.008L310.11 747.347Z" stroke="#303133" stroke-width="0.95" stroke-miterlimit="10"/>
<path d="M317.332 742.863C360.865 726.526 399.834 702.469 431.652 672.286C505.082 602.929 542.994 593.81 564.207 601.175C592.968 611.164 590.765 651.366 633.912 666.618C645.13 670.579 650.325 669.638 715.882 666.618C797.947 662.819 806.16 663.528 816.223 668.569C848.219 684.634 834.431 712.291 866.781 737.938C898.261 762.877 952.708 769.51 997.011 754.293C1044.41 738.031 1075.11 698.468 1078.97 662.029C1084.09 613.731 1040.14 588.711 1059.06 557.337C1070.16 538.926 1087.62 543.723 1112.68 516.763C1123.69 504.938 1147.16 479.721 1139.49 453.945C1131.25 426.288 1090.97 410.886 1060.62 408.806C1052.27 408.226 1034.54 407.97 970.236 434.977C896.955 465.747 895.092 476.538 866.06 478.164C829.998 480.173 797.974 465.48 765.705 450.681C732.199 435.302 730.35 427.566 701.359 418.61C685.571 413.732 655.383 404.776 618.641 411.42C605.165 413.848 567.743 420.62 550.46 446.093C537.759 464.829 549.603 473.506 540.506 499.096C530.756 526.509 503.573 554.747 466.192 565.189C431.489 574.888 400.635 565.712 383.46 560.612C373.466 557.674 349.533 549.543 303 512.837C248.757 470.01 251.082 457.081 231.759 450.019C157.39 422.745 -48.6903 550.704 -15.6739 664.655C0.752723 721.281 70.8786 755.873 118.377 768.035C194.133 787.433 262.6 762.68 312.954 744.478C314.422 743.944 315.891 743.409 317.332 742.863Z" stroke="#303133" stroke-width="0.92" stroke-miterlimit="10"/>
<path d="M324.566 738.379C366.81 722.507 404.623 699.146 435.5 669.847C506.754 602.545 543.524 593.705 564.111 600.849C592.015 610.548 589.866 649.554 631.749 664.341C642.627 668.186 647.672 667.291 711.271 664.341C790.902 660.67 798.884 661.355 808.648 666.246C839.692 681.834 826.325 708.678 857.696 733.547C888.238 757.754 941.08 764.19 984.064 749.426C1030.05 733.629 1059.85 695.25 1063.59 659.904C1068.56 613.034 1025.92 588.757 1044.26 558.312C1055.03 540.459 1071.94 545.105 1096.29 518.947C1106.98 507.47 1129.76 483.008 1122.3 457.999C1114.32 431.155 1075.24 416.182 1045.75 414.184C1037.59 413.638 1020.44 413.383 958.051 439.588C886.946 469.44 885.124 479.918 856.962 481.486C821.974 483.449 790.888 469.185 759.585 454.828C727.072 439.902 725.25 432.398 697.156 423.709C681.831 418.982 652.527 410.281 616.927 416.74C603.845 419.063 567.538 425.672 550.772 450.425C538.438 468.592 549.942 477.025 541.103 501.86C531.585 528.448 505.286 555.85 469.033 565.979C435.35 575.387 405.42 566.49 388.804 561.541C379.135 558.661 355.909 550.843 310.763 515.183C258.138 473.634 260.45 461.112 241.63 454.235C169.492 427.775 -30.4832 551.947 1.55418 662.494C17.4777 717.436 85.5366 751.006 131.634 762.807C205.065 781.625 271.56 757.603 320.418 739.948C321.737 739.425 323.165 738.879 324.566 738.379Z" stroke="#303133" stroke-width="0.89" stroke-miterlimit="10"/>
<path d="M331.799 733.908C372.741 718.527 409.394 695.896 439.333 667.512C508.412 602.267 544.039 593.694 564.002 600.629C591.048 610.026 588.981 647.835 629.572 662.192C640.124 665.921 645.02 665.05 706.674 662.192C783.857 658.626 791.595 659.3 801.059 664.039C831.165 679.139 818.193 705.17 848.653 729.285C878.256 752.748 929.467 758.986 971.131 744.675C1015.72 729.354 1044.56 692.161 1048.23 657.894C1053.05 612.454 1011.72 588.92 1029.49 559.416C1039.94 542.097 1056.34 546.639 1079.94 521.247C1090.29 510.119 1112.38 486.4 1105.16 462.158C1097.4 436.138 1059.52 421.653 1030.94 419.69C1023.09 419.156 1006.46 418.912 945.92 444.316C876.991 473.262 875.21 483.414 847.932 484.971C814.004 486.864 783.884 473.041 753.533 459.126C722.026 444.664 720.245 437.381 693.008 428.925C678.158 424.337 649.752 415.904 615.199 422.153C602.525 424.476 567.32 430.807 551.07 454.782C539.117 472.391 550.267 480.557 541.701 504.636C532.522 530.412 506.971 556.965 471.806 566.792C439.17 575.922 410.138 567.292 393.983 562.483C384.614 559.695 362.109 552.121 318.337 517.553C267.316 477.27 269.492 465.143 251.325 458.475C181.389 432.816 -12.4802 553.202 18.5917 660.357C34.0256 713.627 99.9905 746.162 144.688 757.604C215.861 775.817 280.303 752.539 327.665 735.394C329.066 734.918 330.439 734.407 331.799 733.908Z" stroke="#303133" stroke-width="0.86" stroke-miterlimit="10"/>
<path d="M339.034 729.424C378.683 714.527 414.178 692.609 443.169 665.119C510.072 601.941 544.585 593.636 563.908 600.35C590.098 609.457 588.099 646.069 627.411 659.95C637.624 663.563 642.369 662.715 702.079 659.95C776.869 656.465 784.321 657.139 793.486 661.739C822.627 676.375 810.076 701.569 839.543 724.929C868.208 747.649 917.814 753.689 958.16 739.832C1001.35 724.998 1029.31 688.966 1032.83 655.78C1037.49 611.78 997.473 588.99 1014.69 560.415C1024.79 543.642 1040.67 548.021 1063.53 523.454C1073.57 512.674 1094.94 489.71 1088.01 466.235C1080.5 441.04 1043.82 426.997 1016.13 425.103C1008.53 424.58 992.373 424.348 933.792 448.95C867.039 476.979 865.339 486.806 838.89 488.293C806.051 490.128 776.869 476.735 747.483 463.249C716.969 449.31 715.242 442.19 688.875 434.047C674.488 429.599 646.979 421.444 613.514 427.496C601.276 429.703 567.144 435.871 551.411 459.079C539.839 476.143 550.622 484.053 542.327 507.366C533.448 532.328 508.699 558.045 474.649 567.57C443.033 576.398 414.926 568.046 399.288 563.389C390.204 560.694 368.407 553.353 326.021 519.876C276.619 480.87 278.726 469.115 261.117 462.657C193.398 437.811 5.64756 554.421 35.7404 658.173C50.6984 709.758 114.61 741.26 157.852 752.342C226.849 770.009 289.224 747.463 335.091 730.887L339.034 729.424Z" stroke="#303133" stroke-width="0.84" stroke-miterlimit="10"/>
<path d="M346.255 724.94C384.627 710.54 418.978 689.337 447.031 662.738C511.758 601.616 545.155 593.578 563.839 600.071C589.173 608.876 587.242 644.304 625.262 657.732C635.148 661.216 639.731 660.403 697.496 657.732C769.811 654.398 777.059 655.013 785.884 659.462C814.101 673.622 801.944 697.992 830.5 720.596C858.227 742.573 906.215 748.474 945.255 735.011C987.029 720.654 1014.09 685.807 1017.49 653.701C1021.96 611.106 983.235 589.036 999.893 561.437C1009.67 545.175 1025.04 549.45 1047.15 525.684C1056.86 515.23 1077.54 493.044 1070.78 470.335C1063.52 445.942 1028.03 432.375 1001.25 430.539C993.882 430.04 978.258 429.808 921.594 453.608C857.016 480.719 855.357 490.233 829.779 491.661C798 493.439 769.784 480.487 741.391 467.443C711.869 453.899 710.21 447.069 684.686 439.193C670.762 434.895 644.164 426.997 611.787 432.851C599.902 434.988 566.912 440.982 551.696 463.412C540.505 479.918 550.948 487.561 542.925 510.119C534.331 534.268 510.385 559.149 477.45 568.36C446.854 576.909 419.671 568.825 404.537 564.318C395.752 561.704 374.62 554.607 333.663 522.222C285.824 484.494 287.932 473.111 270.839 466.873C205.323 442.84 23.6919 555.618 52.792 656.012C67.2605 705.96 129.064 736.393 170.933 747.115C237.619 764.201 298.022 742.364 342.393 726.357L346.255 724.94Z" stroke="#303133" stroke-width="0.81" stroke-miterlimit="10"/>
<path d="M353.489 720.456C390.557 706.537 423.74 686.047 450.838 660.345C513.39 601.279 545.658 593.52 563.703 599.792C588.18 608.307 586.317 642.538 623.059 655.548C632.578 658.928 637.038 658.138 692.859 655.548C762.74 652.319 769.743 652.923 778.31 657.22C805.506 670.892 793.812 694.449 821.362 716.286C848.164 737.532 894.534 743.177 932.255 730.225C972.628 716.368 998.764 682.694 1002.05 651.668C1006.41 610.525 968.997 589.222 985.098 562.506C994.535 546.836 1009.38 550.89 1030.76 527.961C1040.13 517.89 1060.12 496.412 1053.58 474.47C1046.57 450.913 1012.28 437.799 986.403 436.022C979.278 435.534 964.184 435.313 909.424 458.313C847.035 484.494 845.458 493.659 820.723 495.042C790.018 496.761 762.74 484.251 735.272 471.636C706.715 458.545 705.138 451.947 680.471 444.339C667.022 440.18 641.322 432.549 610.032 438.206C598.555 440.285 566.681 446.035 551.968 467.733C541.157 483.681 551.247 491.081 543.496 512.872C535.188 536.208 512.044 560.252 480.21 569.15C450.661 577.409 424.458 569.591 409.772 565.247C401.286 562.726 380.903 555.862 341.277 524.592C295.044 488.13 297.07 477.142 280.616 471.102C217.303 447.87 41.7908 556.861 69.9119 653.875C83.8908 702.092 143.614 731.549 184.069 741.911C248.565 758.428 306.874 737.346 349.749 721.85L353.489 720.456Z" stroke="#303133" stroke-width="0.78" stroke-miterlimit="10"/>
<path d="M360.723 715.973C396.494 702.537 428.517 682.765 454.672 657.964C515.035 600.954 546.188 593.462 563.608 599.525C587.241 607.738 585.365 640.773 620.91 653.295C630.116 656.559 634.386 655.792 688.262 653.295C755.709 650.182 762.468 650.762 770.735 654.909C797.034 668.105 785.693 690.848 812.291 711.919C838.128 732.421 882.907 737.869 919.323 725.359C958.282 711.977 983.506 679.477 986.688 649.531C990.89 609.84 954.773 589.269 970.37 563.493C979.495 548.393 993.814 552.307 1014.44 530.145C1023.48 520.422 1042.78 499.7 1036.47 478.524C1029.67 455.781 996.601 443.12 971.635 441.412C964.836 440.947 950.191 440.727 897.334 462.924C837.108 488.212 835.571 497.086 811.666 498.422C782.035 500.071 755.709 487.968 729.193 475.829C701.656 463.192 700.106 456.826 676.309 449.473C663.323 445.466 638.506 438.102 608.318 443.561C597.236 445.57 566.49 451.123 552.28 472.066C541.837 487.457 551.587 494.589 544.121 515.625C536.112 538.148 513.784 561.356 483.052 569.94C454.496 577.92 429.176 570.37 415.061 566.177C406.902 563.737 387.198 557.116 348.96 526.915C304.385 491.72 306.289 481.115 290.406 475.295C229.296 452.877 59.9169 558.057 87.0588 651.692C100.548 698.236 158.191 726.66 197.204 736.661C259.457 752.598 315.726 732.258 357.119 717.297L360.723 715.973Z" stroke="#303133" stroke-width="0.75" stroke-miterlimit="10"/>
<path d="M367.957 711.489C402.44 698.544 433.306 679.483 458.508 655.571C516.694 600.629 546.719 593.404 563.513 599.246C586.29 607.157 584.549 639.007 618.735 651.076C627.628 654.224 631.735 653.48 683.667 651.076C748.68 648.079 755.193 648.637 763.162 652.632C788.509 665.352 777.589 687.271 803.208 707.586C828.147 727.333 871.281 732.595 906.378 720.538C943.922 707.645 968.25 676.317 971.309 647.452C975.389 609.19 940.55 589.373 955.522 564.515C964.32 549.938 978.122 553.736 998.002 532.375C1006.73 523.001 1025.32 503.033 1019.24 482.613C1012.72 460.706 980.814 448.497 956.691 446.848C950.069 446.395 936.022 446.186 885.083 467.582C827.032 491.975 825.55 500.501 802.556 501.79C773.999 503.393 748.611 491.754 723.06 480.023C696.517 467.838 695.021 461.705 672.081 454.619C659.571 450.763 635.651 443.654 606.551 448.916C595.931 450.809 566.287 456.21 552.594 476.364C542.531 491.197 551.914 498.073 544.707 518.343C536.983 540.053 515.457 562.425 485.84 570.695C458.344 578.385 433.908 571.113 420.31 567.071C412.41 564.748 393.454 558.347 356.589 529.227C313.619 495.309 315.455 485.087 300.157 479.465C241.249 457.86 77.9894 559.242 104.152 649.496C117.152 694.356 172.701 721.758 210.341 731.387C270.349 746.755 324.565 727.147 364.476 712.732L367.957 711.489Z" stroke="#303133" stroke-width="0.73" stroke-miterlimit="10"/>
<path d="M375.176 707.006C408.37 694.544 438.085 676.2 462.354 653.19C518.352 600.304 547.248 593.346 563.416 598.968C585.336 606.588 583.664 637.242 616.571 648.857C625.125 651.877 629.082 651.181 679.123 648.857C741.675 645.965 747.957 646.534 755.64 650.356C780.035 662.599 769.524 683.693 794.177 703.242C818.178 722.269 859.707 727.322 893.444 715.718C929.588 703.3 952.991 673.146 955.996 645.373C959.899 608.539 926.393 589.455 940.807 565.538C949.265 551.506 962.564 555.165 981.683 534.605C990.087 525.591 1007.98 506.356 1002.08 486.713C995.798 465.619 965.093 453.864 941.922 452.284C935.544 451.843 922.028 451.645 872.993 472.24C817.118 495.704 815.69 503.928 793.566 505.171C766.07 506.704 741.648 495.506 717.048 484.262C691.497 472.542 690.056 466.63 667.986 459.811C655.938 456.094 632.916 449.264 604.904 454.329C594.624 456.187 566.095 461.298 552.918 480.766C543.236 495.053 552.266 501.674 545.317 521.177C537.892 542.086 517.169 563.61 488.667 571.578C462.205 578.966 438.666 571.973 425.585 568.093C417.983 565.828 399.748 559.695 364.257 531.666C322.891 498.956 324.645 489.141 309.919 483.716C253.228 462.924 96.087 560.508 121.257 647.371C133.781 690.546 187.249 716.926 223.475 726.195C281.226 740.982 333.443 722.118 371.831 708.237C372.96 707.83 374.075 707.424 375.176 707.006Z" stroke="#303133" stroke-width="0.7" stroke-miterlimit="10"/>
<path d="M382.413 702.522C414.313 690.544 442.87 672.913 466.192 650.797C520.013 599.967 547.781 593.287 563.323 598.689C584.387 606.018 582.782 635.476 614.398 646.639C622.557 649.542 626.433 648.869 674.461 646.639C734.606 643.862 740.63 644.385 748 648.079C771.457 659.846 761.34 680.115 785.056 698.909C808.172 717.192 848.015 722.048 880.474 710.897C915.217 698.967 937.709 669.986 940.537 643.282C944.29 607.888 912.09 589.559 925.946 566.618C934.105 553.12 946.847 556.64 965.245 536.881C973.309 528.216 990.511 509.736 984.895 490.848C978.857 470.556 949.335 459.242 927.048 457.778C920.929 457.36 907.929 457.163 860.811 476.956C807.112 499.502 805.738 507.412 784.457 508.609C758.036 510.084 734.565 499.316 710.932 488.467C686.373 477.2 684.986 471.52 663.773 464.968C652.201 461.391 630.077 454.828 603.153 459.695C593.28 461.484 565.853 466.432 553.193 485.11C543.878 498.828 552.567 505.194 545.891 523.953C538.751 544.025 518.83 564.724 491.498 572.379C466.056 579.488 443.442 572.762 430.863 569.022C423.561 566.85 406.033 560.891 371.929 534.012C332.181 502.65 333.854 493.183 319.725 487.979C265.21 467.942 114.175 561.728 138.353 645.21C150.387 686.701 201.775 712.058 236.586 720.968C292.094 735.174 342.271 717.041 379.177 703.707L382.413 702.522Z" stroke="#303133" stroke-width="0.67" stroke-miterlimit="10"/>
<path d="M389.644 698.038C420.247 686.544 447.644 669.63 470.023 648.416C521.697 599.63 548.308 593.229 563.212 598.468C583.432 605.438 581.882 633.757 612.165 644.466C620.052 647.254 623.697 646.604 669.794 644.466C727.492 641.806 733.271 642.306 740.356 645.849C762.847 657.139 753.151 676.596 775.901 694.635C798.025 712.174 836.318 716.832 867.458 706.134C900.787 694.681 922.381 666.873 925.087 641.26C928.691 607.296 897.795 589.71 911.095 567.652C918.954 554.654 931.206 558.022 948.802 539.088C956.553 530.772 973.048 513.046 967.649 494.949C961.87 475.492 933.545 464.666 912.182 463.203C906.308 462.796 893.838 462.61 848.624 481.602C797.101 503.242 795.782 510.827 775.371 511.966C750.024 513.383 727.505 503.056 704.81 492.649C681.258 481.834 679.939 476.387 659.569 470.103C648.473 466.618 627.232 460.369 601.409 465.038C591.89 466.757 565.619 471.508 553.476 489.431C544.542 502.603 552.864 508.702 546.472 526.706C539.673 545.977 520.5 565.828 494.228 573.169C469.751 579.987 448.117 573.541 436.055 569.951C429.052 567.861 412.217 562.204 379.5 536.359C341.425 506.251 343.003 497.179 329.404 492.219C277.133 473.041 132.231 563.075 155.443 643.131C166.988 682.949 216.295 707.261 249.692 715.822C302.956 729.459 351.094 712.058 386.503 699.258L389.644 698.038Z" stroke="#303133" stroke-width="0.65" stroke-miterlimit="10"/>
<path d="M396.867 693.578C426.185 682.574 452.429 666.372 473.86 646.046C523.317 599.339 548.84 593.206 563.118 598.166C582.482 604.891 581 631.968 610.059 642.224C617.62 644.896 621.115 644.269 665.268 642.224C720.531 639.681 726.066 640.145 732.838 643.549C754.391 654.363 745.076 672.994 766.833 690.255C788.033 707.063 824.693 711.524 854.528 701.279C886.456 690.314 907.126 663.679 909.723 639.146C913.177 606.622 883.587 589.768 896.315 568.639C903.78 556.245 915.529 559.474 932.418 541.319C939.843 533.35 955.644 516.368 950.477 499.014C944.929 480.429 917.841 469.975 897.348 468.616C891.719 468.221 879.78 468.058 836.469 486.237C787.122 506.959 785.87 514.231 766.316 515.276C742.03 516.635 720.463 506.738 698.733 496.761C676.174 486.411 674.909 481.195 655.409 475.179C644.776 471.891 624.433 465.886 599.657 470.323C590.573 471.973 565.376 476.526 553.736 493.682C545.182 506.297 553.165 512.14 547.032 529.378C540.464 547.835 522.174 566.85 496.99 573.877C473.615 580.417 452.837 574.237 441.238 570.799C434.534 568.801 418.42 563.377 387.076 538.624C350.552 509.782 352.115 501.093 339.102 496.331C289.033 477.955 150.237 564.143 172.483 640.865C183.539 679 230.765 702.289 262.748 710.478C313.768 723.546 359.866 706.878 393.78 694.623C394.909 694.286 395.902 693.926 396.867 693.578Z" stroke="#303133" stroke-width="0.62" stroke-miterlimit="10"/>
</g>
</g>
</svg>
