<svg width="156" height="115" viewBox="0 0 156 115" fill="none" xmlns="http://www.w3.org/2000/svg">
<path d="M133.368 59.1208C133.368 71.6642 129.173 83.2085 122.217 92.5328C118.353 97.528 113.716 101.968 108.417 105.409C99.8055 111.07 89.5379 114.4 78.4976 114.4C48.1365 114.4 23.6268 89.6467 23.6268 59.2318C23.6268 28.7059 48.2469 4.06311 78.4976 4.06311C89.5379 4.06311 99.8055 7.39321 108.417 12.9434C113.716 16.3845 118.353 20.8246 122.217 25.8198C129.283 35.0331 133.368 46.5774 133.368 59.1208Z" fill="#38393A"/>
<path d="M33.4181 15.5952C34.8677 15.1215 35.6609 13.5559 35.1898 12.0984C34.7186 10.6408 33.1614 9.84331 31.7117 10.317C30.2621 10.7908 29.4689 12.3564 29.94 13.8139C30.4112 15.2714 31.9684 16.069 33.4181 15.5952Z" fill="#2A2E39"/>
<path d="M39.4419 6.54106C40.4277 6.21892 40.9671 5.15432 40.6467 4.1632C40.3263 3.17208 39.2674 2.62975 38.2816 2.95189C37.2958 3.27402 36.7564 4.33862 37.0769 5.32974C37.3973 6.32086 38.4561 6.86319 39.4419 6.54106Z" fill="#2A2E39"/>
<path d="M132.775 22.6491C134.486 21.0775 134.605 18.4094 133.042 16.6897C131.479 14.97 128.825 14.8499 127.115 16.4214C125.405 17.993 125.285 20.6611 126.848 22.3808C128.411 24.1005 131.065 24.2206 132.775 22.6491Z" fill="#2A2E39"/>
<path d="M133.167 3.82027C133.887 3.15857 133.938 2.03517 133.28 1.31109C132.621 0.587008 131.504 0.536434 130.784 1.19813C130.064 1.85983 130.013 2.98323 130.671 3.70731C131.33 4.43139 132.447 4.48197 133.167 3.82027Z" fill="#2A2E39"/>
<path d="M24.6199 108.073H138.336" stroke="#2B323C" stroke-width="2" stroke-miterlimit="10" stroke-linecap="round" stroke-linejoin="round"/>
<path d="M113.274 9.50232C114.93 9.50232 116.365 10.8344 116.365 12.6104V104.632C116.365 106.297 115.04 107.74 113.274 107.74H45.4861C43.83 107.74 42.3947 106.408 42.3947 104.632V12.6104C42.3947 10.9454 43.7196 9.50232 45.4861 9.50232H113.274Z" fill="#212121"/>
<path d="M116.366 19.1598V104.521C116.366 106.186 115.041 107.629 113.274 107.629H51.3379L45.9281 102.19L107.423 17.6057L112.722 15.6077L116.366 19.1598Z" fill="#090606"/>
<path d="M113.496 17.1617H46.4805V102.634C46.4805 103.3 47.0325 103.744 47.5845 103.744H111.496C112.6 103.744 113.496 102.849 113.496 101.744V17.1617Z" fill="#2A3038"/>
<path d="M112.943 16.6067C112.943 16.0517 112.502 15.6077 111.95 15.6077H46.9217C46.3697 15.6077 45.9281 16.0517 45.9281 16.6067V101.08C45.9281 101.635 46.3697 102.079 46.9217 102.079H111.839C112.391 102.079 112.833 101.635 112.833 101.08V16.6067H112.943Z" fill="#8B8578"/>
<g filter="url(#filter0_d_1555_20558)">
<path d="M112.944 16.6067C112.944 16.0517 112.502 15.6077 111.95 15.6077H46.9221C46.3701 15.6077 45.8181 16.0517 45.9285 16.6067C46.7013 50.2407 47.0325 88.3149 43.2788 98.1942L105.547 97.3062C109.411 80.2116 112.281 49.4637 112.944 16.6067Z" fill="#8B8578"/>
</g>
<path d="M40.6293 101.413C40.7397 105.076 37.7588 108.184 34.1154 108.295H32.349L27.4912 108.406C20.2046 108.517 14.1323 102.745 13.9115 95.4187C13.6907 88.0924 19.5421 81.9872 26.8288 81.7652C34.1154 81.5432 40.1877 87.4264 40.4085 94.7526L40.5189 97.5277L40.6293 101.413Z" fill="url(#paint0_radial_1555_20558)"/>
<path d="M39.1944 101.08C39.3048 104.743 36.3239 107.851 32.6806 107.962H30.9141L22.8546 99.8587L29.6997 91.8665L32.2389 90.4235L39.084 97.3057L39.1944 101.08Z" fill="url(#paint1_linear_1555_20558)"/>
<path d="M30.0302 95.1968L32.3487 92.8657C33.0111 92.1997 33.0111 91.2007 32.3487 90.5347C31.6862 89.8687 30.6926 89.8687 30.0302 90.5347L27.7117 92.8657L25.3932 90.5347C24.7308 89.8687 23.7372 89.8687 23.0747 90.5347C22.4123 91.2007 22.4123 92.1997 23.0747 92.8657L25.3932 95.1968L23.0747 97.5279C22.4123 98.1939 22.4123 99.1929 23.0747 99.859C23.4059 100.192 23.8476 100.303 24.2892 100.303C24.7308 100.303 25.1724 100.192 25.5036 99.859L27.8221 97.5279L30.1406 99.859C30.803 100.525 31.7966 100.525 32.4591 99.859C32.7903 99.5259 32.9007 99.0819 32.9007 98.6379C32.9007 98.1939 32.7903 97.7499 32.4591 97.4169L30.0302 95.1968Z" fill="url(#paint2_linear_1555_20558)"/>
<g filter="url(#filter1_d_1555_20558)">
<path d="M112.834 15.7185C112.834 15.7185 112.724 20.8247 111.178 53.1266C111.178 53.3487 111.178 53.5707 111.178 53.7927C109.301 85.5396 81.148 92.1998 77.7255 92.5328C76.1798 92.6439 73.1989 92.8659 67.7891 92.9769C61.1649 93.1989 51.0077 93.3099 35.22 93.5319C34.668 93.5319 34.3368 92.9769 34.5576 92.5328C45.598 70.4432 45.7084 15.8295 45.7084 15.8295H112.834V15.7185Z" fill="#303133"/>
</g>
<path d="M97.376 72.7745H65.2485C65.0277 72.7745 64.8069 72.4415 64.8069 71.8864C64.8069 71.4424 65.0277 70.9984 65.2485 70.9984H97.4864C97.7072 70.9984 97.928 71.3314 97.928 71.8864C97.928 72.3305 97.7072 72.7745 97.376 72.7745Z" fill="#777E90"/>
<path d="M80.9267 77.7695H65.0286C64.8078 77.7695 64.587 77.4364 64.587 76.8814C64.587 76.4374 64.8078 75.9934 65.0286 75.9934H80.9267C81.1475 75.9934 81.3683 76.3264 81.3683 76.8814C81.3683 77.3254 81.1475 77.7695 80.9267 77.7695Z" fill="#777E90"/>
<path d="M102.566 32.147H70.3282C70.1073 32.147 69.8865 31.814 69.8865 31.259C69.8865 30.815 70.1073 30.371 70.3282 30.371H102.566C102.787 30.371 103.008 30.704 103.008 31.259C103.008 31.814 102.787 32.147 102.566 32.147Z" fill="#777E90"/>
<path d="M102.344 37.1425H89.5376C89.3168 37.1425 89.096 36.8095 89.096 36.2545C89.096 35.8105 89.3168 35.3665 89.5376 35.3665H102.344C102.565 35.3665 102.786 35.6995 102.786 36.2545C102.786 36.8095 102.565 37.1425 102.344 37.1425Z" fill="#777E90"/>
<path d="M86.0046 37.1425H70.1065C69.8857 37.1425 69.6649 36.8095 69.6649 36.2545C69.6649 35.8105 69.8857 35.3665 70.1065 35.3665H86.0046C86.2254 35.3665 86.4462 35.6995 86.4462 36.2545C86.4462 36.8095 86.2254 37.1425 86.0046 37.1425Z" fill="#777E90"/>
<path d="M111.067 53.6819C109.19 85.4289 81.0367 92.0891 77.6142 92.4221C76.0686 92.5331 73.0876 92.7551 67.6779 92.8661C81.6991 86.3169 89.2066 74.6615 89.0962 65.5592C95.9412 66.1143 107.644 65.5592 111.067 53.6819Z" fill="#8B8578"/>
<path d="M57.0789 37.4752C56.8581 37.4752 56.6373 37.3642 56.4165 37.1422L53.2148 34.0341C52.8836 33.7011 52.8836 33.0351 53.2148 32.702C53.546 32.369 54.2084 32.369 54.5397 32.702L57.0789 35.2551L62.2679 30.038C62.5991 29.705 63.2616 29.705 63.5928 30.038C63.924 30.371 63.924 31.037 63.5928 31.37L57.7414 37.2532C57.5206 37.3642 57.2998 37.4752 57.0789 37.4752Z" fill="#BDFF00"/>
<path d="M101.131 52.0169H68.8935C68.6727 52.0169 68.4519 51.6839 68.4519 51.1289C68.4519 50.6849 68.6727 50.2408 68.8935 50.2408H101.131C101.352 50.2408 101.573 50.5739 101.573 51.1289C101.573 51.5729 101.352 52.0169 101.131 52.0169Z" fill="#777E90"/>
<path d="M84.57 57.0119H68.6719C68.4511 57.0119 68.2303 56.6789 68.2303 56.1239C68.2303 55.6799 68.4511 55.2358 68.6719 55.2358H84.57C84.7908 55.2358 85.0116 55.5689 85.0116 56.1239C85.122 56.5679 84.9012 57.0119 84.57 57.0119Z" fill="#777E90"/>
<path d="M55.6439 57.3451C55.4231 57.3451 55.2022 57.2341 54.9814 57.0121L51.8901 53.904C51.5589 53.571 51.5589 52.9049 51.8901 52.5719C52.2213 52.2389 52.8838 52.2389 53.215 52.5719L55.7543 55.125L60.9433 49.9078C61.2745 49.5748 61.9369 49.5748 62.2681 49.9078C62.5993 50.2408 62.5993 50.9069 62.2681 51.2399L56.3063 57.0121C56.1959 57.2341 55.9751 57.3451 55.6439 57.3451Z" fill="#BDFF00"/>
<path d="M95.1679 9.72424C95.1679 9.61323 95.1679 9.61323 95.1679 9.72424L94.5055 9.05822C94.5055 9.05822 94.1743 9.16922 93.9535 9.39123H83.9068C83.9068 9.16922 83.9068 8.94721 83.9068 8.72521C83.9068 6.61614 82.1403 4.84009 80.0426 4.84009C77.9449 4.84009 76.1785 6.61614 76.1785 8.72521C76.1785 8.94721 76.1785 9.16922 76.2889 9.28022H65.6901C65.1381 9.28022 64.5861 9.72424 64.5861 10.3903V13.8314C64.5861 16.3844 66.3525 17.9385 68.8918 17.9385H90.531C93.0703 17.9385 95.3888 16.3844 95.3888 13.8314V10.3903C95.4992 10.1683 95.3888 9.94624 95.1679 9.72424Z" fill="#3D4456"/>
<path d="M94.8381 9.72436V13.1655C94.8381 13.3875 94.8381 13.6095 94.8381 13.8315C94.5069 16.0516 92.6301 17.8276 90.3116 17.8276H68.562C66.2435 17.8276 64.3667 16.0516 64.0355 13.8315C64.0355 13.6095 64.0355 13.3875 64.0355 13.1655V9.72436C64.0355 9.16935 64.4771 8.61433 65.1395 8.61433H75.7383C75.7383 8.39232 75.7383 8.28132 75.7383 8.05931C75.7383 5.95025 77.5047 4.17419 79.6024 4.17419C81.7001 4.17419 83.4665 5.95025 83.4665 8.05931C83.4665 8.28132 83.4665 8.39232 83.4665 8.61433H94.0653C94.3965 8.72533 94.8381 9.16935 94.8381 9.72436Z" fill="#D6C08E"/>
<path d="M79.3811 9.83543C80.3567 9.83543 81.1476 9.04027 81.1476 8.05938C81.1476 7.07849 80.3567 6.28333 79.3811 6.28333C78.4055 6.28333 77.6147 7.07849 77.6147 8.05938C77.6147 9.04027 78.4055 9.83543 79.3811 9.83543Z" fill="#2A2E39"/>
<path d="M94.726 13.8317C94.3948 16.0517 92.5179 17.8278 90.1994 17.8278H68.5602C66.2418 17.8278 64.3649 16.0517 64.0337 13.8317H94.726Z" fill="#BDA46C"/>
<path opacity="0.5" d="M86.3365 12.2775H72.2048C71.8735 12.2775 71.6527 12.0555 71.6527 11.7225C71.6527 11.3895 71.8735 11.1675 72.2048 11.1675H86.3365C86.6677 11.1675 86.8885 11.3895 86.8885 11.7225C86.8885 12.0555 86.6677 12.2775 86.3365 12.2775Z" fill="#474E61"/>
<path d="M13.3589 47.1328C13.3589 47.1328 2.42895 49.9079 5.74106 52.128C9.05318 54.237 16.8919 57.9001 24.2889 55.4581C31.686 53.016 24.2889 49.5749 24.3993 49.5749C24.5097 49.5749 13.3589 47.1328 13.3589 47.1328Z" fill="#9C9C9C"/>
<path d="M0 46.2446C3.97454 47.4657 16.2294 45.4676 24.068 40.3615C30.2507 48.0207 32.5691 50.0187 34.7772 50.2407C31.3547 53.6819 19.9831 59.232 13.5797 52.0168C6.07221 56.79 0 46.2446 0 46.2446Z" fill="#8B8578"/>
<path d="M121.333 84.6519C125.529 84.8739 136.9 79.7677 143.083 72.8855C151.032 78.7687 153.682 80.1007 156 79.7677C153.461 83.9858 145.732 93.1991 134.802 93.8651C126.853 89.203 121.333 84.6519 121.333 84.6519Z" fill="#8B8578"/>
<path d="M55.202 76.6593C56.6654 76.6593 57.8517 75.4666 57.8517 73.9953C57.8517 72.5239 56.6654 71.3312 55.202 71.3312C53.7386 71.3312 52.5523 72.5239 52.5523 73.9953C52.5523 75.4666 53.7386 76.6593 55.202 76.6593Z" fill="url(#paint3_radial_1555_20558)"/>
<path d="M116.365 21.1575H111.839V24.1546H116.365V21.1575Z" fill="url(#paint4_linear_1555_20558)"/>
<path d="M99.1636 27.1192L96.6654 29.6309L98.461 31.4361L100.959 28.9245L99.1636 27.1192Z" fill="url(#paint5_linear_1555_20558)"/>
<path d="M128.009 28.7171L130.507 31.2288L132.147 29.5805L129.649 27.0688L128.009 28.7171Z" fill="url(#paint6_linear_1555_20558)"/>
<path d="M114.488 67.8902C126.561 67.8902 136.348 58.05 136.348 45.9115C136.348 33.773 126.561 23.9329 114.488 23.9329C102.415 23.9329 92.6285 33.773 92.6285 45.9115C92.6285 58.05 102.415 67.8902 114.488 67.8902Z" fill="url(#paint7_radial_1555_20558)"/>
<path d="M95.2775 47.1328C94.7255 47.1328 94.2839 46.6887 94.2839 46.1337C94.2839 46.0227 94.2839 45.9117 94.2839 45.8007C94.2839 35.4774 101.902 26.8191 112.059 25.4871C112.611 25.3761 113.053 25.8201 113.163 26.3751C113.273 26.9301 112.832 27.3742 112.28 27.4852C103.116 28.5952 96.1607 36.5874 96.1607 45.8007C96.1607 45.9117 96.1607 46.0227 96.1607 46.0227C96.1607 46.6887 95.7191 47.1328 95.2775 47.1328Z" fill="#FFE5A9"/>
<path d="M114.598 66.2251C112.39 66.2251 110.293 65.8921 108.195 65.2261C107.643 65.0041 107.422 64.56 107.532 64.005C107.753 63.45 108.195 63.228 108.747 63.339C110.624 64.005 112.501 64.227 114.488 64.227C123.651 64.227 131.49 57.3448 132.705 48.1315C132.815 47.5765 133.257 47.2435 133.809 47.3545C134.361 47.4655 134.692 47.9095 134.581 48.4646C133.919 53.3487 131.6 57.7888 127.847 61.1189C124.314 64.449 119.456 66.2251 114.598 66.2251Z" fill="#FFDB86"/>
<path d="M131.711 45.9112C131.38 55.2354 123.762 62.6727 114.488 62.6727C105.103 62.6727 97.4856 55.2354 97.2648 45.9112C97.596 36.5869 105.214 29.1496 114.488 29.1496C123.872 29.0386 131.49 36.5869 131.711 45.9112Z" fill="#232731"/>
<path d="M129.173 46.5775H126.413C125.971 46.5775 125.64 46.2445 125.64 45.8005C125.64 45.3564 125.971 45.0234 126.413 45.0234H129.173C129.614 45.0234 129.945 45.3564 129.945 45.8005C129.945 46.2445 129.614 46.5775 129.173 46.5775Z" fill="#424853"/>
<path d="M101.792 46.5776H99.0315C98.5899 46.5776 98.2587 46.2446 98.2587 45.8006C98.2587 45.3566 98.5899 45.0236 99.0315 45.0236H101.792C102.233 45.0236 102.564 45.3566 102.564 45.8006C102.564 46.2446 102.233 46.5776 101.792 46.5776Z" fill="#424853"/>
<path d="M114.046 61.7851C113.605 61.7851 113.273 61.4521 113.273 61.008V58.233C113.273 57.7889 113.605 57.4559 114.046 57.4559C114.488 57.4559 114.819 57.7889 114.819 58.233V61.008C114.819 61.4521 114.488 61.7851 114.046 61.7851Z" fill="#424853"/>
<path d="M114.046 34.2561C113.605 34.2561 113.273 33.9231 113.273 33.4791V30.704C113.273 30.26 113.605 29.927 114.046 29.927C114.488 29.927 114.819 30.26 114.819 30.704V33.4791C114.819 33.9231 114.488 34.2561 114.046 34.2561Z" fill="#424853"/>
<path d="M114.267 48.0205C115.67 48.0205 116.807 46.8774 116.807 45.4674C116.807 44.0574 115.67 42.9143 114.267 42.9143C112.865 42.9143 111.728 44.0574 111.728 45.4674C111.728 46.8774 112.865 48.0205 114.267 48.0205Z" fill="#424853"/>
<path d="M124.424 34.5893C124.093 34.2563 123.651 34.3673 123.32 34.5893L114.267 44.1356H114.157C113.494 44.1356 112.942 44.6906 112.942 45.3567C112.942 45.4677 112.942 45.4677 112.942 45.4677L111.507 47.0217C111.176 47.3547 111.286 47.7987 111.507 48.1317C111.617 48.2427 111.838 48.3537 112.059 48.3537C112.28 48.3537 112.501 48.2427 112.611 48.1317L114.046 46.5777H114.157C114.819 46.5777 115.371 46.0227 115.371 45.3567C115.371 45.2456 115.371 45.2456 115.371 45.1346L124.424 35.5884C124.755 35.3663 124.755 34.9223 124.424 34.5893Z" fill="#4BC9F0"/>
<path d="M124.204 34.9219L111.95 47.7983C111.839 47.7983 111.839 47.7983 111.729 47.7983C111.618 47.6873 111.618 47.4653 111.839 47.2433L123.652 34.8109C123.763 34.5889 124.094 34.5889 124.204 34.8109C124.204 34.8109 124.204 34.8109 124.204 34.9219Z" fill="#4BC9F0"/>
<path d="M118.572 16.9396V19.8257C118.572 20.9357 117.689 21.8237 116.585 21.8237H111.727C110.623 21.8237 109.74 20.9357 109.74 19.8257V16.9396C109.74 15.8296 110.623 14.9415 111.727 14.9415H116.585C117.689 14.9415 118.572 15.8296 118.572 16.9396Z" fill="#8B8578"/>
<path d="M99.5842 27.3738L96.9345 30.0379C96.3825 30.5929 95.3889 30.5929 94.7265 30.0379L93.1808 28.4839C92.6288 27.9289 92.6288 26.9298 93.1808 26.2638L95.8305 23.5997C96.3825 23.0447 97.3761 23.0447 98.0386 23.5997L99.5842 25.1538C100.136 25.8198 100.136 26.8188 99.5842 27.3738Z" fill="#8B8578"/>
<path d="M129.172 27.3738L131.822 30.0379C132.374 30.5929 133.367 30.5929 134.03 30.0379L135.575 28.4839C136.128 27.9289 136.128 26.9298 135.575 26.2638L132.926 23.5997C132.374 23.0447 131.38 23.0447 130.718 23.5997L129.172 25.1538C128.62 25.8198 128.62 26.8188 129.172 27.3738Z" fill="#8B8578"/>
<path d="M114.267 45.6894C114.389 45.6894 114.488 45.59 114.488 45.4674C114.488 45.3448 114.389 45.2454 114.267 45.2454C114.145 45.2454 114.047 45.3448 114.047 45.4674C114.047 45.59 114.145 45.6894 114.267 45.6894Z" fill="#1C3754"/>
<defs>
<filter id="filter0_d_1555_20558" x="40.2788" y="15.6077" width="75.6649" height="88.5865" filterUnits="userSpaceOnUse" color-interpolation-filters="sRGB">
<feFlood flood-opacity="0" result="BackgroundImageFix"/>
<feColorMatrix in="SourceAlpha" type="matrix" values="0 0 0 0 0 0 0 0 0 0 0 0 0 0 0 0 0 0 127 0" result="hardAlpha"/>
<feOffset dy="3"/>
<feGaussianBlur stdDeviation="1.5"/>
<feColorMatrix type="matrix" values="0 0 0 0 0 0 0 0 0 0 0 0 0 0 0 0 0 0 0.18 0"/>
<feBlend mode="normal" in2="BackgroundImageFix" result="effect1_dropShadow_1555_20558"/>
<feBlend mode="normal" in="SourceGraphic" in2="effect1_dropShadow_1555_20558" result="shape"/>
</filter>
<filter id="filter1_d_1555_20558" x="30.4884" y="15.7185" width="86.3455" height="86.8134" filterUnits="userSpaceOnUse" color-interpolation-filters="sRGB">
<feFlood flood-opacity="0" result="BackgroundImageFix"/>
<feColorMatrix in="SourceAlpha" type="matrix" values="0 0 0 0 0 0 0 0 0 0 0 0 0 0 0 0 0 0 127 0" result="hardAlpha"/>
<feOffset dy="5"/>
<feGaussianBlur stdDeviation="2"/>
<feColorMatrix type="matrix" values="0 0 0 0 0 0 0 0 0 0 0 0 0 0 0 0 0 0 0.18 0"/>
<feBlend mode="normal" in2="BackgroundImageFix" result="effect1_dropShadow_1555_20558"/>
<feBlend mode="normal" in="SourceGraphic" in2="effect1_dropShadow_1555_20558" result="shape"/>
</filter>
<radialGradient id="paint0_radial_1555_20558" cx="0" cy="0" r="1" gradientUnits="userSpaceOnUse" gradientTransform="translate(27.4012 82.7109) rotate(90.295) scale(25.6971 19.3258)">
<stop stop-color="#FFD166"/>
<stop offset="1" stop-color="#D0A132"/>
</radialGradient>
<linearGradient id="paint1_linear_1555_20558" x1="27.1953" y1="94.7726" x2="33.7358" y2="101.278" gradientUnits="userSpaceOnUse">
<stop stop-color="#CFA200"/>
<stop offset="1" stop-color="#B69900" stop-opacity="0"/>
</linearGradient>
<linearGradient id="paint2_linear_1555_20558" x1="32.0442" y1="99.6715" x2="23.6159" y2="91.2222" gradientUnits="userSpaceOnUse">
<stop offset="0.0113208" stop-color="#FFF0C9"/>
<stop offset="1" stop-color="white"/>
</linearGradient>
<radialGradient id="paint3_radial_1555_20558" cx="0" cy="0" r="1" gradientUnits="userSpaceOnUse" gradientTransform="translate(55.2282 71.5215) rotate(90.2926) scale(5.13794 3.83194)">
<stop stop-color="#FFD166"/>
<stop offset="1" stop-color="#D0A132"/>
</radialGradient>
<linearGradient id="paint4_linear_1555_20558" x1="114.101" y1="21.16" x2="114.101" y2="24.1544" gradientUnits="userSpaceOnUse">
<stop stop-color="#DCBA45"/>
<stop offset="0.31" stop-color="#FFF168"/>
<stop offset="0.7" stop-color="#E8B641"/>
<stop offset="1" stop-color="#D8AD42"/>
</linearGradient>
<linearGradient id="paint5_linear_1555_20558" x1="97.9151" y1="28.3775" x2="99.7187" y2="30.1714" gradientUnits="userSpaceOnUse">
<stop stop-color="#DCBA45"/>
<stop offset="0.31" stop-color="#FFF168"/>
<stop offset="0.7" stop-color="#E8B641"/>
<stop offset="1" stop-color="#D8AD42"/>
</linearGradient>
<linearGradient id="paint6_linear_1555_20558" x1="129.261" y1="29.9724" x2="130.907" y2="28.3345" gradientUnits="userSpaceOnUse">
<stop stop-color="#DCBA45"/>
<stop offset="0.31" stop-color="#FFF168"/>
<stop offset="0.7" stop-color="#E8B641"/>
<stop offset="1" stop-color="#D8AD42"/>
</linearGradient>
<radialGradient id="paint7_radial_1555_20558" cx="0" cy="0" r="1" gradientUnits="userSpaceOnUse" gradientTransform="translate(114.705 25.5028) rotate(90.2926) scale(42.388 31.6134)">
<stop stop-color="#FFD166"/>
<stop offset="1" stop-color="#D0A132"/>
</radialGradient>
</defs>
</svg>
