<svg width="104" height="50" viewBox="0 0 104 50" fill="none" xmlns="http://www.w3.org/2000/svg">
<g filter="url(#filter0_d_3230_36018)">
<path d="M25.8503 13.8524L21.9126 37.5713H17.0484L9.90262 23.882H9.74048L7.45892 37.5713H1.72607L5.66379 13.8524H10.5975L17.6854 27.5186H17.8823L20.1291 13.8524H25.8503Z" fill="url(#paint0_linear_3230_36018)"/>
<path d="M25.5174 37.5713L29.4551 13.8524H45.9935L45.2059 18.5082H34.4004L33.6129 23.3724H43.5729L42.7854 28.0398H32.8253L32.0378 32.9156H42.8433L42.0558 37.5713H25.5174Z" fill="url(#paint1_linear_3230_36018)"/>
<path d="M48.6725 18.5082L49.4601 13.8524H69.5076L68.7201 18.5082H61.528L58.3778 37.5713H52.726L55.8762 18.5082H48.6725Z" fill="url(#paint2_linear_3230_36018)"/>
<path d="M25.9749 13.8731L25.9993 13.7262H25.8503H20.1291H20.0219L20.0045 13.8319L17.7751 27.3924H17.7621L10.7096 13.7943L10.6742 13.7262H10.5975H5.66379H5.55678L5.53926 13.8317L1.60155 37.5507L1.57716 37.6976H1.72607H7.45892H7.56585L7.58343 37.5921L9.84226 24.0392L16.9365 37.6298L16.9719 37.6976H17.0484H21.9126H22.0196L22.0372 37.592L25.9749 13.8731ZM25.3929 37.5507L25.3685 37.6976H25.5174H42.0558H42.1624L42.1802 37.5924L42.9678 32.9366L42.9927 32.7893H42.8433H32.186L32.9328 28.166H42.7854H42.8921L42.9099 28.0608L43.6974 23.3934L43.7223 23.2462H43.5729H33.7612L34.5078 18.6344H45.2059H45.3126L45.3304 18.5292L46.1179 13.8735L46.1429 13.7262H45.9935H29.4551H29.3481L29.3306 13.8317L25.3929 37.5507ZM48.548 18.4871L48.5231 18.6344H48.6725H55.7274L52.6015 37.5508L52.5772 37.6976H52.726H58.3778H58.4849L58.5024 37.5919L61.6351 18.6344H68.7201H68.8268L68.8446 18.5292L69.6321 13.8735L69.657 13.7262H69.5076H49.4601H49.3534L49.3356 13.8314L48.548 18.4871Z" stroke="url(#paint3_linear_3230_36018)" stroke-width="0.252465"/>
</g>
<g clip-path="url(#clip0_3230_36018)">
<path d="M96.0269 18.6203C96.0269 18.6203 98.0897 19.9721 97.7668 22.1236L95.3812 33.9735C95.3812 33.9735 95.1302 36.7524 92.4116 37.3028L81.512 38.6881C80.2228 38.7341 78.956 38.3418 77.9183 37.5755C77.9183 37.5755 72.6333 33.3545 71.9373 32.4177C71.9373 32.4177 69.7223 30.5773 70.1255 28.2887L71.9239 17.4141C71.9239 17.4141 72.4995 13.5813 75.6247 13.3989L83.9779 12.7933C85.5723 12.6778 87.2001 12.6259 88.7042 13.1663C89.5433 13.4508 90.326 13.8806 91.0163 14.4362L96.0269 18.6203Z" fill="url(#paint4_linear_3230_36018)"/>
<g style="mix-blend-mode:lighten" opacity="0.2" filter="url(#filter1_f_3230_36018)">
<path d="M85.5435 21.4262C85.5435 21.4262 83.024 21.7608 81.361 20.5729L74.7175 15.052C74.7175 15.052 72.9675 13.7922 74.5502 15.502L80.9076 21.1719C80.9076 21.1719 82.1205 22.1924 81.4848 25.2222L79.7248 35.1817C79.7248 35.1817 79.3818 38.2717 80.1748 35.349L82.4166 25.0315C82.4166 25.0315 82.5087 22.6525 85.5301 21.9867L95.2436 20.9142C95.2436 20.9142 97.9689 20.568 95.0997 20.6299L85.5435 21.4262Z" fill="white"/>
</g>
<g style="mix-blend-mode:overlay" opacity="0.2" filter="url(#filter2_f_3230_36018)">
<path d="M83.6683 21.9683C83.6683 21.9683 82.6142 22.6141 82.3783 23.7383C82.3783 23.7383 82.1676 24.3824 82.1592 23.208L81.9819 22.2276C81.9819 22.2276 81.4046 21.085 82.7614 21.6756C82.7313 21.6956 84.642 21.5936 83.6683 21.9683Z" fill="white"/>
</g>
<path opacity="0.4" d="M97.0608 20.0091C96.3749 19.3249 95.8295 18.838 95.8295 18.838L91.0999 14.8864C90.0292 13.988 88.3729 13.4811 87.3272 13.2352C86.6969 13.101 86.0524 13.0448 85.4084 13.0679C84.3192 13.0863 82.5274 13.1264 81.1756 13.2101C79.0944 13.3389 76.8509 13.5781 75.8939 13.8107C74.937 14.0432 74.4 14.2557 73.8579 14.7793C85.0403 13.625 94.0645 18.0032 97.0608 20.0091Z" fill="url(#paint5_linear_3230_36018)"/>
<path opacity="0.4" d="M95.0076 34.1694L97.2243 22.3915C97.3699 21.5818 96.9349 20.9795 96.2205 21.0531L86.4502 21.908C90.7649 23.1527 93.7913 30.6277 95.0076 34.1694Z" fill="url(#paint6_linear_3230_36018)"/>
<g filter="url(#filter3_i_3230_36018)">
<path d="M88.4879 17.4312C88.6541 16.5044 87.6115 15.542 86.1591 15.2814C84.7067 15.0209 83.3945 15.5609 83.2283 16.4877C83.062 17.4144 84.1047 18.3769 85.5571 18.6374C87.0095 18.898 88.3216 18.3579 88.4879 17.4312Z" fill="white"/>
</g>
<g filter="url(#filter4_i_3230_36018)">
<path d="M91.5932 31.0761C91.345 31.9687 90.8295 32.7639 90.1159 33.3547C89.4228 33.9693 88.5582 34.357 87.6382 34.4656C87.5529 34.4656 87.4709 34.4773 87.3889 34.4773C86.8137 34.5031 86.249 34.3161 85.8029 33.952C85.6004 33.7698 85.4368 33.5486 85.3218 33.3017C85.2068 33.0547 85.1428 32.7871 85.1337 32.5148C85.1152 31.8684 85.2811 31.2301 85.6122 30.6745C85.9751 30.0403 86.4732 29.4937 87.0711 29.0735L87.0409 29.035C86.8422 28.7605 86.7261 28.4349 86.7063 28.0965C86.6857 27.7115 86.7497 27.3265 86.8937 26.9689C87.052 26.5657 87.2783 26.1928 87.5629 25.8664C87.8593 25.5236 88.2076 25.2295 88.5952 24.9947C88.9644 24.7699 89.3696 24.6102 89.7931 24.5229C90.1676 24.4437 90.555 24.4489 90.9273 24.538C91.255 24.6187 91.5521 24.7931 91.7823 25.0399C92.0057 25.2889 92.1501 25.5987 92.1972 25.9299C92.2586 26.4228 92.1784 26.923 91.9663 27.3721C91.7314 27.8897 91.3892 28.3517 90.9625 28.7272C91.2794 28.9846 91.5062 29.3362 91.6099 29.731C91.7188 30.171 91.7148 30.6314 91.5982 31.0694L91.5932 31.0761ZM88.2639 27.2282C88.2633 27.2338 88.2633 27.2393 88.2639 27.2449V27.2549C88.2589 27.2747 88.2556 27.2949 88.2539 27.3152C88.2252 27.4851 88.2473 27.6597 88.3174 27.8171C88.3876 27.9635 88.5056 28.0815 88.652 28.1517C88.6951 28.1733 88.7399 28.1912 88.7859 28.2052C88.9145 28.2427 89.0492 28.2546 89.1824 28.2404L89.3012 28.2253C89.5487 28.1765 89.7823 28.0737 89.9854 27.9241C90.1966 27.7721 90.3738 27.5779 90.5057 27.3537C90.6264 27.1548 90.6917 26.9272 90.6948 26.6945C90.6984 26.4972 90.6259 26.3061 90.4923 26.1608C90.3517 26.0182 90.1636 25.9325 89.9637 25.9199C89.7271 25.9035 89.4902 25.9485 89.276 26.0504C89.0387 26.1593 88.8262 26.3159 88.652 26.5105C88.4834 26.694 88.3592 26.9138 88.289 27.1529C88.2706 27.188 88.2706 27.2065 88.2706 27.2249L88.2639 27.2282ZM90.0456 31.1865C90.0574 31.138 90.0691 31.0895 90.0774 31.041C90.0782 31.0287 90.0782 31.0164 90.0774 31.0042C90.1207 30.75 90.0821 30.4887 89.9671 30.258C89.8539 30.0442 89.6673 29.8784 89.4417 29.7912H89.425C89.2287 29.7223 89.0196 29.6977 88.8127 29.7193C88.7565 29.723 88.7007 29.7303 88.6454 29.7411C88.3261 29.8026 88.0234 29.9309 87.757 30.1175C87.4795 30.3084 87.242 30.5516 87.0577 30.8335C86.8864 31.0882 86.7786 31.3802 86.7432 31.685C86.7136 31.9444 86.7725 32.2062 86.9105 32.4279C87.0484 32.6377 87.2585 32.7895 87.501 32.8545C87.781 32.9262 88.0753 32.921 88.3526 32.8395C88.6704 32.7503 88.9669 32.5978 89.2243 32.3911C89.4863 32.1833 89.7046 31.9257 89.8667 31.6332L89.8834 31.6031L89.8935 31.583L89.9051 31.5596C89.9638 31.4423 90.0109 31.3196 90.0456 31.1932V31.1865Z" fill="white"/>
</g>
<g filter="url(#filter5_i_3230_36018)">
<path d="M72.7868 26.293C72.6601 27.2102 72.8171 28.1444 73.2369 28.9698C73.6302 29.8117 74.2726 30.5125 75.0772 30.9774C75.1508 31.0175 75.2261 31.0544 75.2997 31.0878C75.8202 31.3415 76.4162 31.3933 76.9727 31.2334C77.2315 31.1477 77.4701 31.0102 77.674 30.8293C77.8779 30.6483 78.0429 30.4278 78.1588 30.1811C78.4331 29.5948 78.5351 28.9426 78.4533 28.3006C78.3713 27.5741 78.1308 26.8745 77.7489 26.2511L77.7908 26.2278C78.083 26.0558 78.3195 25.8031 78.4717 25.5C78.6442 25.1551 78.7384 24.7763 78.7477 24.3908C78.762 23.9571 78.7014 23.5241 78.5687 23.1109C78.4322 22.6785 78.2284 22.2703 77.9647 21.9013C77.7162 21.5476 77.4077 21.2402 77.053 20.9929C76.7417 20.771 76.3842 20.6223 76.0074 20.5579C75.6749 20.5009 75.333 20.5422 75.0236 20.6767C74.7191 20.8168 74.4634 21.0446 74.2892 21.3309C74.0362 21.7579 73.9107 22.2484 73.9278 22.7445C73.9398 23.3145 74.0721 23.8755 74.3159 24.3908C73.922 24.5026 73.5739 24.737 73.3222 25.06C73.0461 25.4218 72.8665 25.8478 72.8002 26.298L72.7868 26.293ZM77.3709 24.0813V24.1064C77.3709 24.1281 77.3608 24.1465 77.3558 24.1666C77.3141 24.3367 77.2234 24.4909 77.0948 24.6099C76.973 24.7185 76.8177 24.7823 76.6548 24.7906C76.6069 24.7947 76.5588 24.7947 76.5109 24.7906C76.3784 24.7729 76.2502 24.731 76.1329 24.6668C76.0977 24.6484 76.0642 24.6267 76.0307 24.6049C75.8249 24.4614 75.6535 24.274 75.5288 24.0562C75.3946 23.8335 75.3091 23.5849 75.2779 23.3267C75.2449 23.0966 75.275 22.8618 75.3649 22.6475C75.4402 22.4645 75.5827 22.3172 75.7631 22.2359C75.9488 22.1612 76.1555 22.1577 76.3436 22.2259C76.5667 22.3051 76.7659 22.4399 76.9225 22.6174C77.0976 22.8112 77.2308 23.039 77.3139 23.2866C77.3954 23.5223 77.4219 23.7735 77.391 24.021C77.3862 24.0417 77.3795 24.0619 77.3709 24.0813ZM74.1654 27.0057C74.1737 26.9572 74.1821 26.907 74.1938 26.8601C74.1956 26.8477 74.1984 26.8353 74.2022 26.8233C74.2638 26.5734 74.4025 26.3493 74.5986 26.1826C74.7884 26.0323 75.0261 25.9557 75.2678 25.9668H75.2897C75.4964 25.9784 75.698 26.0355 75.8802 26.1341C75.9285 26.16 75.9754 26.1885 76.0207 26.2194C76.2905 26.4021 76.5185 26.6398 76.6899 26.917C76.8683 27.2028 76.9898 27.5204 77.0479 27.8522C77.1036 28.1541 77.087 28.4648 76.9994 28.759C76.9247 29.009 76.7687 29.2268 76.5561 29.378C76.3461 29.515 76.0931 29.5704 75.8451 29.5336C75.5595 29.4882 75.2913 29.3668 75.0688 29.1822C74.8126 28.9743 74.6014 28.7165 74.4481 28.4244C74.2893 28.1301 74.1909 27.807 74.1587 27.4741C74.1579 27.463 74.1579 27.4518 74.1587 27.4407C74.1587 27.4323 74.1587 27.4239 74.1587 27.4173C74.1587 27.4106 74.1587 27.3989 74.1587 27.3922C74.1515 27.2609 74.1571 27.1292 74.1754 26.999L74.1654 27.0057Z" fill="white"/>
</g>
</g>
<g clip-path="url(#clip1_3230_36018)">
<path d="M90.6028 10.5227C92.4258 11.3333 94.0776 12.257 95.2535 13.1241C96.6966 14.1882 97.2793 15.0675 96.9842 15.7376C96.7472 16.2774 96.0281 16.4853 94.8412 16.3603C95.5511 16.3603 96.0283 16.2005 96.1741 15.8692C96.6037 14.8914 93.9847 12.7808 90.3258 11.1564C86.6668 9.53198 83.3503 9.00241 82.9213 9.98134C82.7758 10.3129 82.9804 10.7746 83.4574 11.3033C82.5667 10.5051 82.2352 9.83 82.4725 9.29027C82.767 8.62007 83.8054 8.46103 85.5594 8.81783C86.9879 9.10651 88.7792 9.71272 90.6028 10.5227ZM86.1243 4.74252C85.7376 5.14298 85.2853 5.47407 84.787 5.72145C85.1628 5.90824 85.5579 6.05322 85.9651 6.15379C86.8748 6.37448 87.8241 6.37156 88.7323 6.14527C88.4871 5.95815 88.2627 5.74505 88.063 5.50968C87.5555 4.90624 87.2184 4.17757 87.0868 3.39937C86.8322 3.89135 86.5078 4.34376 86.1238 4.74252H86.1243ZM96.4897 8.66264C95.9526 8.80203 95.3958 8.84848 94.8431 8.79998C95.1937 9.37606 95.6425 9.88598 96.1689 10.3066C96.7219 10.749 97.3514 11.0857 98.0259 11.2998C97.8971 10.988 97.8051 10.6623 97.7519 10.3291C97.6304 9.55002 97.7194 8.75256 98.0095 8.01964C97.5368 8.30638 97.0252 8.52279 96.4905 8.66209L96.4897 8.66264ZM91.0598 5.73986C90.5341 6.0818 89.9669 6.35476 89.3721 6.55206C88.2294 6.93639 87.0017 6.98876 85.8306 6.70313C85.2229 6.55295 84.6411 6.31222 84.1046 5.98898C83.1169 5.39651 82.298 4.54091 81.6936 3.51336L81.9829 6.07495L82.2823 8.73021C82.4955 8.49921 82.8402 8.28634 83.3972 8.20064C83.9742 8.11193 84.7122 8.16192 85.6514 8.35309C87.1131 8.65028 88.9392 9.26747 90.7926 10.0915C92.6461 10.9155 94.3291 11.8565 95.5324 12.744C96.3059 13.3142 96.8388 13.8279 97.1623 14.3173C97.3201 14.5456 97.4328 14.8021 97.4944 15.0729L99.7884 13.4068L101.864 11.8986C100.695 12.2007 99.5002 12.2339 98.3802 11.9782C97.4441 11.7675 96.5679 11.3466 95.8176 10.7471C95.1147 10.1841 94.5391 9.47768 94.1291 8.67473C93.8264 8.08079 93.6094 7.44673 93.4847 6.79158C93.2576 5.61763 93.3047 4.35578 93.6297 3.11097C92.9412 4.19977 92.0578 5.0941 91.0598 5.73986ZM81.5925 1.88923L81.4051 2.46604H81.1075H80.7837L81.2577 2.8124L81.2851 2.83273L81.2774 2.85662L81.0925 3.42629L81.436 3.17716L81.5974 3.05988L81.6341 3.08735L82.0999 3.42904L81.9081 2.83465L81.9788 2.78301L82.4111 2.46879L81.8292 2.46714H81.7895L81.6618 2.07133L81.5985 1.87467L81.5925 1.88923ZM87.6159 2.28695L87.62 1.4904L87.1443 2.13945L86.8832 2.05211L86.3816 1.88483L86.8509 2.5424L86.375 3.19145L86.8904 3.02664L87.14 2.94699L87.2907 3.15711L87.6087 3.6029L87.6128 2.79619L88.3783 2.55256L87.6164 2.29821L87.6159 2.28695ZM102.708 11.1122L102.618 11.0136L102.302 10.6664L102.351 11.1012L102.371 11.266L101.823 11.5157L102.387 11.6319L102.414 11.6376L102.427 11.75L102.483 12.2378L102.78 11.7121L103.37 11.8343L103.09 11.5261L102.962 11.3888L103.259 10.863L102.708 11.1122ZM98.6128 6.62814L98.558 6.67978L97.836 6.27217L98.1826 7.02779L97.5744 7.59115L98.0949 7.53017L98.3963 7.49501L98.4862 7.69085L98.7432 8.25036L98.9051 7.43623L99.727 7.33845L99.2613 7.07504L99.0059 6.93111L99.1681 6.11698L98.6128 6.62814ZM94.0557 0.988026L93.8757 0.914962L92.862 0.502954L93.5456 1.60164L92.7181 2.59046L93.0444 2.50806L93.902 2.29382L93.9672 2.27706L94.0727 2.44653L94.5283 3.17744L94.6511 3.3741L94.7039 2.5998L94.739 2.08562L94.8995 2.04579L95.9878 1.77414L95.1497 1.43382L94.7935 1.28879L94.8209 0.876782L94.8787 0.0338149L94.8812 -0.000244141L94.0557 0.988026Z" fill="url(#paint7_linear_3230_36018)"/>
<path d="M90.6028 10.5227C92.4258 11.3333 94.0776 12.257 95.2535 13.1241C96.6966 14.1882 97.2793 15.0675 96.9842 15.7376C96.7472 16.2774 96.0281 16.4853 94.8412 16.3603C95.5511 16.3603 96.0283 16.2005 96.1741 15.8692C96.6037 14.8914 93.9847 12.7808 90.3258 11.1564C86.6668 9.53198 83.3503 9.00241 82.9213 9.98134C82.7758 10.3129 82.9804 10.7746 83.4574 11.3033C82.5667 10.5051 82.2352 9.83 82.4725 9.29027C82.767 8.62007 83.8054 8.46103 85.5594 8.81783C86.9879 9.10651 88.7792 9.71272 90.6028 10.5227ZM86.1243 4.74252C85.7376 5.14298 85.2853 5.47407 84.787 5.72145C85.1628 5.90824 85.5579 6.05322 85.9651 6.15379C86.8748 6.37448 87.8241 6.37156 88.7323 6.14527C88.4871 5.95815 88.2627 5.74505 88.063 5.50968C87.5555 4.90624 87.2184 4.17757 87.0868 3.39937C86.8322 3.89135 86.5078 4.34376 86.1238 4.74252H86.1243ZM96.4897 8.66264C95.9526 8.80203 95.3958 8.84848 94.8431 8.79998C95.1937 9.37606 95.6425 9.88598 96.1689 10.3066C96.7219 10.749 97.3514 11.0857 98.0259 11.2998C97.8971 10.988 97.8051 10.6623 97.7519 10.3291C97.6304 9.55002 97.7194 8.75256 98.0095 8.01964C97.5368 8.30638 97.0252 8.52279 96.4905 8.66209L96.4897 8.66264ZM91.0598 5.73986C90.5341 6.0818 89.9669 6.35476 89.3721 6.55206C88.2294 6.93639 87.0017 6.98876 85.8306 6.70313C85.2229 6.55295 84.6411 6.31222 84.1046 5.98898C83.1169 5.39651 82.298 4.54091 81.6936 3.51336L81.9829 6.07495L82.2823 8.73021C82.4955 8.49921 82.8402 8.28634 83.3972 8.20064C83.9742 8.11193 84.7122 8.16192 85.6514 8.35309C87.1131 8.65028 88.9392 9.26747 90.7926 10.0915C92.6461 10.9155 94.3291 11.8565 95.5324 12.744C96.3059 13.3142 96.8388 13.8279 97.1623 14.3173C97.3201 14.5456 97.4328 14.8021 97.4944 15.0729L99.7884 13.4068L101.864 11.8986C100.695 12.2007 99.5002 12.2339 98.3802 11.9782C97.4441 11.7675 96.5679 11.3466 95.8176 10.7471C95.1147 10.1841 94.5391 9.47768 94.1291 8.67473C93.8264 8.08079 93.6094 7.44673 93.4847 6.79158C93.2576 5.61763 93.3047 4.35578 93.6297 3.11097C92.9412 4.19977 92.0578 5.0941 91.0598 5.73986ZM81.5925 1.88923L81.4051 2.46604H81.1075H80.7837L81.2577 2.8124L81.2851 2.83273L81.2774 2.85662L81.0925 3.42629L81.436 3.17716L81.5974 3.05988L81.6341 3.08735L82.0999 3.42904L81.9081 2.83465L81.9788 2.78301L82.4111 2.46879L81.8292 2.46714H81.7895L81.6618 2.07133L81.5985 1.87467L81.5925 1.88923ZM87.6159 2.28695L87.62 1.4904L87.1443 2.13945L86.8832 2.05211L86.3816 1.88483L86.8509 2.5424L86.375 3.19145L86.8904 3.02664L87.14 2.94699L87.2907 3.15711L87.6087 3.6029L87.6128 2.79619L88.3783 2.55256L87.6164 2.29821L87.6159 2.28695ZM102.708 11.1122L102.618 11.0136L102.302 10.6664L102.351 11.1012L102.371 11.266L101.823 11.5157L102.387 11.6319L102.414 11.6376L102.427 11.75L102.483 12.2378L102.78 11.7121L103.37 11.8343L103.09 11.5261L102.962 11.3888L103.259 10.863L102.708 11.1122ZM98.6128 6.62814L98.558 6.67978L97.836 6.27217L98.1826 7.02779L97.5744 7.59115L98.0949 7.53017L98.3963 7.49501L98.4862 7.69085L98.7432 8.25036L98.9051 7.43623L99.727 7.33845L99.2613 7.07504L99.0059 6.93111L99.1681 6.11698L98.6128 6.62814ZM94.0557 0.988026L93.8757 0.914962L92.862 0.502954L93.5456 1.60164L92.7181 2.59046L93.0444 2.50806L93.902 2.29382L93.9672 2.27706L94.0727 2.44653L94.5283 3.17744L94.6511 3.3741L94.7039 2.5998L94.739 2.08562L94.8995 2.04579L95.9878 1.77414L95.1497 1.43382L94.7935 1.28879L94.8209 0.876782L94.8787 0.0338149L94.8812 -0.000244141L94.0557 0.988026Z" fill="url(#paint8_linear_3230_36018)"/>
</g>
<mask id="mask0_3230_36018" style="mask-type:alpha" maskUnits="userSpaceOnUse" x="0" y="37" width="99" height="13">
<rect y="37.6926" width="98.1642" height="11.8267" fill="url(#paint9_linear_3230_36018)"/>
</mask>
<g mask="url(#mask0_3230_36018)">
<g filter="url(#filter6_d_3230_36018)">
<path d="M25.8503 63.0621L21.9126 39.3432H17.0484L9.90262 53.0325H9.74048L7.45892 39.3432H1.72607L5.66379 63.0621H10.5975L17.6854 49.3959H17.8823L20.1291 63.0621H25.8503Z" fill="url(#paint10_linear_3230_36018)"/>
<path d="M25.5174 39.3432L29.4551 63.0621H45.9935L45.2059 58.4063H34.4004L33.6129 53.5421H43.5729L42.7854 48.8747H32.8253L32.0378 43.9989H42.8433L42.0558 39.3432H25.5174Z" fill="url(#paint11_linear_3230_36018)"/>
<path d="M48.6725 58.4063L49.4601 63.0621H69.5076L68.7201 58.4063H61.528L58.3778 39.3432H52.726L55.8762 58.4063H48.6725Z" fill="url(#paint12_linear_3230_36018)"/>
<path d="M25.9749 63.0414L25.9993 63.1883H25.8503H20.1291H20.0219L20.0045 63.0826L17.7751 49.5221H17.7621L10.7096 63.1202L10.6742 63.1883H10.5975H5.66379H5.55678L5.53926 63.0827L1.60155 39.3638L1.57716 39.2169H1.72607H7.45892H7.56585L7.58343 39.3224L9.84226 52.8753L16.9365 39.2847L16.9719 39.2169H17.0484H21.9126H22.0196L22.0372 39.3225L25.9749 63.0414ZM25.3929 39.3638L25.3685 39.2169H25.5174H42.0558H42.1624L42.1802 39.3221L42.9678 43.9779L42.9927 44.1251H42.8433H32.186L32.9328 48.7485H42.7854H42.8921L42.9099 48.8537L43.6974 53.5211L43.7223 53.6683H43.5729H33.7612L34.5078 58.2801H45.2059H45.3126L45.3304 58.3853L46.1179 63.041L46.1429 63.1883H45.9935H29.4551H29.3481L29.3306 63.0827L25.3929 39.3638ZM48.548 58.4274L48.5231 58.2801H48.6725H55.7274L52.6015 39.3637L52.5772 39.2169H52.726H58.3778H58.4849L58.5024 39.3226L61.6351 58.2801H68.7201H68.8268L68.8446 58.3853L69.6321 63.041L69.657 63.1883H69.5076H49.4601H49.3534L49.3356 63.0831L48.548 58.4274Z" stroke="url(#paint13_linear_3230_36018)" stroke-width="0.252465"/>
</g>
<g clip-path="url(#clip2_3230_36018)">
<path d="M96.0269 58.9591C96.0269 58.9591 98.0897 57.6073 97.7668 55.4558L95.3812 43.6059C95.3812 43.6059 95.1302 40.827 92.4116 40.2766L81.512 38.8913C80.2228 38.8453 78.956 39.2376 77.9183 40.0039C77.9183 40.0039 72.6333 44.2249 71.9373 45.1617C71.9373 45.1617 69.7223 47.0021 70.1255 49.2908L71.9239 60.1653C71.9239 60.1653 72.4995 63.9982 75.6247 64.1805L83.9779 64.7862C85.5723 64.9016 87.2001 64.9535 88.7042 64.4131C89.5433 64.1286 90.326 63.6988 91.0163 63.1432L96.0269 58.9591Z" fill="url(#paint14_linear_3230_36018)"/>
<g style="mix-blend-mode:lighten" opacity="0.2" filter="url(#filter7_f_3230_36018)">
<path d="M85.5435 56.1532C85.5435 56.1532 83.024 55.8186 81.361 57.0065L74.7175 62.5274C74.7175 62.5274 72.9675 63.7872 74.5502 62.0774L80.9076 56.4075C80.9076 56.4075 82.1205 55.387 81.4848 52.3572L79.7248 42.3977C79.7248 42.3977 79.3818 39.3077 80.1748 42.2304L82.4166 52.5479C82.4166 52.5479 82.5087 54.9269 85.5301 55.5928L95.2436 56.6652C95.2436 56.6652 97.9689 57.0114 95.0997 56.9495L85.5435 56.1532Z" fill="white"/>
</g>
<path opacity="0.4" d="M95.0076 43.41L97.2243 55.1879C97.3699 55.9976 96.9349 56.5999 96.2205 56.5263L86.4502 55.6714C90.7649 54.4267 93.7913 46.9517 95.0076 43.41Z" fill="url(#paint15_linear_3230_36018)"/>
<g filter="url(#filter8_i_3230_36018)">
<path d="M91.5932 46.5033C91.345 45.6107 90.8295 44.8155 90.1159 44.2247C89.4228 43.6101 88.5582 43.2224 87.6382 43.1138C87.5529 43.1138 87.4709 43.1021 87.3889 43.1021C86.8137 43.0763 86.249 43.2633 85.8029 43.6274C85.6004 43.8096 85.4368 44.0308 85.3218 44.2777C85.2068 44.5247 85.1428 44.7923 85.1337 45.0646C85.1152 45.711 85.2811 46.3493 85.6122 46.9049C85.9751 47.5391 86.4732 48.0857 87.0711 48.5059L87.0409 48.5444C86.8422 48.8189 86.7261 49.1445 86.7063 49.4829C86.6857 49.868 86.7497 50.2529 86.8937 50.6106C87.052 51.0137 87.2783 51.3866 87.5629 51.713C87.8593 52.0558 88.2076 52.3499 88.5952 52.5847C88.9644 52.8096 89.3696 52.9692 89.7931 53.0565C90.1676 53.1357 90.555 53.1305 90.9273 53.0414C91.255 52.9607 91.5521 52.7863 91.7823 52.5395C92.0057 52.2905 92.1501 51.9807 92.1972 51.6495C92.2586 51.1566 92.1784 50.6564 91.9663 50.2073C91.7314 49.6897 91.3892 49.2277 90.9625 48.8522C91.2794 48.5948 91.5062 48.2432 91.6099 47.8484C91.7188 47.4084 91.7148 46.948 91.5982 46.51L91.5932 46.5033ZM88.2639 50.3512C88.2633 50.3456 88.2633 50.3401 88.2639 50.3345V50.3245C88.2589 50.3047 88.2556 50.2845 88.2539 50.2642C88.2252 50.0943 88.2473 49.9197 88.3174 49.7623C88.3876 49.6159 88.5056 49.4979 88.652 49.4277C88.6951 49.4061 88.7399 49.3882 88.7859 49.3742C88.9145 49.3367 89.0492 49.3248 89.1824 49.3391L89.3012 49.3541C89.5487 49.4029 89.7823 49.5057 89.9854 49.6553C90.1966 49.8073 90.3738 50.0015 90.5057 50.2257C90.6264 50.4247 90.6917 50.6522 90.6948 50.8849C90.6984 51.0822 90.6259 51.2734 90.4923 51.4186C90.3517 51.5612 90.1636 51.6469 89.9637 51.6595C89.7271 51.6759 89.4902 51.6309 89.276 51.529C89.0387 51.4201 88.8262 51.2635 88.652 51.0689C88.4834 50.8854 88.3592 50.6656 88.289 50.4265C88.2706 50.3914 88.2706 50.3729 88.2706 50.3545L88.2639 50.3512ZM90.0456 46.3929C90.0574 46.4414 90.0691 46.4899 90.0774 46.5384C90.0782 46.5507 90.0782 46.563 90.0774 46.5752C90.1207 46.8294 90.0821 47.0907 89.9671 47.3214C89.8539 47.5352 89.6673 47.701 89.4417 47.7882H89.425C89.2287 47.8571 89.0196 47.8817 88.8127 47.8601C88.7565 47.8564 88.7007 47.8491 88.6454 47.8383C88.3261 47.7768 88.0234 47.6485 87.757 47.4619C87.4795 47.271 87.242 47.0278 87.0577 46.7459C86.8864 46.4912 86.7786 46.1992 86.7432 45.8944C86.7136 45.635 86.7725 45.3732 86.9105 45.1516C87.0484 44.9418 87.2585 44.7899 87.501 44.7249C87.781 44.6532 88.0753 44.6584 88.3526 44.7399C88.6704 44.8291 88.9669 44.9816 89.2243 45.1883C89.4863 45.3961 89.7046 45.6537 89.8667 45.9462L89.8834 45.9763L89.8935 45.9964L89.9051 46.0198C89.9638 46.1371 90.0109 46.2598 90.0456 46.3862V46.3929Z" fill="white"/>
</g>
<g filter="url(#filter9_i_3230_36018)">
<path d="M72.7868 51.2865C72.6601 50.3692 72.8171 49.435 73.2369 48.6096C73.6302 47.7677 74.2726 47.0669 75.0772 46.602C75.1508 46.5619 75.2261 46.525 75.2997 46.4916C75.8202 46.2379 76.4162 46.1861 76.9727 46.346C77.2315 46.4317 77.4701 46.5692 77.674 46.7501C77.8779 46.9311 78.0429 47.1516 78.1588 47.3983C78.4331 47.9846 78.5351 48.6368 78.4533 49.2788C78.3713 50.0053 78.1308 50.7049 77.7489 51.3283L77.7908 51.3516C78.083 51.5236 78.3195 51.7763 78.4717 52.0794C78.6442 52.4243 78.7384 52.8031 78.7477 53.1886C78.762 53.6223 78.7014 54.0553 78.5687 54.4685C78.4322 54.9009 78.2284 55.3092 77.9647 55.6781C77.7162 56.0318 77.4077 56.3393 77.053 56.5865C76.7417 56.8084 76.3842 56.9571 76.0074 57.0215C75.6749 57.0785 75.333 57.0372 75.0236 56.9027C74.7191 56.7626 74.4634 56.5348 74.2892 56.2485C74.0362 55.8215 73.9107 55.331 73.9278 54.8349C73.9398 54.2649 74.0721 53.7039 74.3159 53.1886C73.922 53.0768 73.5739 52.8424 73.3222 52.5194C73.0461 52.1576 72.8665 51.7316 72.8002 51.2814L72.7868 51.2865ZM77.3709 53.4981V53.473C77.3709 53.4513 77.3608 53.4329 77.3558 53.4128C77.3141 53.2427 77.2234 53.0885 77.0948 52.9695C76.973 52.8609 76.8177 52.7971 76.6548 52.7888C76.6069 52.7847 76.5588 52.7847 76.5109 52.7888C76.3784 52.8065 76.2502 52.8484 76.1329 52.9126C76.0977 52.931 76.0642 52.9527 76.0307 52.9745C75.8249 53.118 75.6535 53.3054 75.5288 53.5232C75.3946 53.7459 75.3091 53.9945 75.2779 54.2527C75.2449 54.4828 75.275 54.7176 75.3649 54.9319C75.4402 55.115 75.5827 55.2622 75.7631 55.3435C75.9488 55.4182 76.1555 55.4218 76.3436 55.3535C76.5667 55.2743 76.7659 55.1395 76.9225 54.962C77.0976 54.7682 77.2308 54.5404 77.3139 54.2928C77.3954 54.0571 77.4219 53.8059 77.391 53.5584C77.3862 53.5377 77.3795 53.5175 77.3709 53.4981ZM74.1654 50.5737C74.1737 50.6222 74.1821 50.6724 74.1938 50.7193C74.1956 50.7318 74.1984 50.7441 74.2022 50.7561C74.2638 51.006 74.4025 51.2301 74.5986 51.3968C74.7884 51.5471 75.0261 51.6237 75.2678 51.6126H75.2897C75.4964 51.601 75.698 51.5439 75.8802 51.4453C75.9285 51.4194 75.9754 51.3909 76.0207 51.3601C76.2905 51.1773 76.5185 50.9396 76.6899 50.6624C76.8683 50.3766 76.9898 50.059 77.0479 49.7272C77.1036 49.4253 77.087 49.1146 76.9994 48.8204C76.9247 48.5704 76.7687 48.3526 76.5561 48.2014C76.3461 48.0644 76.0931 48.009 75.8451 48.0458C75.5595 48.0912 75.2913 48.2126 75.0688 48.3972C74.8126 48.6051 74.6014 48.8629 74.4481 49.155C74.2893 49.4493 74.1909 49.7724 74.1587 50.1053C74.1579 50.1164 74.1579 50.1276 74.1587 50.1387C74.1587 50.1471 74.1587 50.1555 74.1587 50.1622C74.1587 50.1688 74.1587 50.1805 74.1587 50.1872C74.1515 50.3185 74.1571 50.4502 74.1754 50.5804L74.1654 50.5737Z" fill="white"/>
</g>
</g>
</g>
<defs>
<filter id="filter0_d_3230_36018" x="1.24594" y="13.6" width="68.5605" height="25.3175" filterUnits="userSpaceOnUse" color-interpolation-filters="sRGB">
<feFlood flood-opacity="0" result="BackgroundImageFix"/>
<feColorMatrix in="SourceAlpha" type="matrix" values="0 0 0 0 0 0 0 0 0 0 0 0 0 0 0 0 0 0 127 0" result="hardAlpha"/>
<feOffset dx="-0.18228" dy="1.09368"/>
<feComposite in2="hardAlpha" operator="out"/>
<feColorMatrix type="matrix" values="0 0 0 0 0.258333 0 0 0 0 0.141126 0 0 0 0 0 0 0 0 1 0"/>
<feBlend mode="normal" in2="BackgroundImageFix" result="effect1_dropShadow_3230_36018"/>
<feBlend mode="normal" in="SourceGraphic" in2="effect1_dropShadow_3230_36018" result="shape"/>
</filter>
<filter id="filter1_f_3230_36018" x="73.5511" y="14.2683" width="23.1986" height="22.6743" filterUnits="userSpaceOnUse" color-interpolation-filters="sRGB">
<feFlood flood-opacity="0" result="BackgroundImageFix"/>
<feBlend mode="normal" in="SourceGraphic" in2="BackgroundImageFix" result="shape"/>
<feGaussianBlur stdDeviation="0.16831" result="effect1_foregroundBlur_3230_36018"/>
</filter>
<filter id="filter2_f_3230_36018" x="81.6916" y="21.3378" width="2.42158" height="2.74507" filterUnits="userSpaceOnUse" color-interpolation-filters="sRGB">
<feFlood flood-opacity="0" result="BackgroundImageFix"/>
<feBlend mode="normal" in="SourceGraphic" in2="BackgroundImageFix" result="shape"/>
<feGaussianBlur stdDeviation="0.0841551" result="effect1_foregroundBlur_3230_36018"/>
</filter>
<filter id="filter3_i_3230_36018" x="83.2109" y="15.2159" width="5.29443" height="3.48694" filterUnits="userSpaceOnUse" color-interpolation-filters="sRGB">
<feFlood flood-opacity="0" result="BackgroundImageFix"/>
<feBlend mode="normal" in="SourceGraphic" in2="BackgroundImageFix" result="shape"/>
<feColorMatrix in="SourceAlpha" type="matrix" values="0 0 0 0 0 0 0 0 0 0 0 0 0 0 0 0 0 0 127 0" result="hardAlpha"/>
<feOffset dy="0.33662"/>
<feComposite in2="hardAlpha" operator="arithmetic" k2="-1" k3="1"/>
<feColorMatrix type="matrix" values="0 0 0 0 0 0 0 0 0 0.0978361 0 0 0 0 0.354167 0 0 0 0.16 0"/>
<feBlend mode="multiply" in2="shape" result="effect1_innerShadow_3230_36018"/>
</filter>
<filter id="filter4_i_3230_36018" x="85.1323" y="24.4671" width="7.08496" height="10.0125" filterUnits="userSpaceOnUse" color-interpolation-filters="sRGB">
<feFlood flood-opacity="0" result="BackgroundImageFix"/>
<feBlend mode="normal" in="SourceGraphic" in2="BackgroundImageFix" result="shape"/>
<feColorMatrix in="SourceAlpha" type="matrix" values="0 0 0 0 0 0 0 0 0 0 0 0 0 0 0 0 0 0 127 0" result="hardAlpha"/>
<feOffset dy="0.33662"/>
<feComposite in2="hardAlpha" operator="arithmetic" k2="-1" k3="1"/>
<feColorMatrix type="matrix" values="0 0 0 0 0 0 0 0 0 0.0978361 0 0 0 0 0.354167 0 0 0 0.16 0"/>
<feBlend mode="multiply" in2="shape" result="effect1_innerShadow_3230_36018"/>
</filter>
<filter id="filter5_i_3230_36018" x="72.7441" y="20.533" width="6.00562" height="10.7915" filterUnits="userSpaceOnUse" color-interpolation-filters="sRGB">
<feFlood flood-opacity="0" result="BackgroundImageFix"/>
<feBlend mode="normal" in="SourceGraphic" in2="BackgroundImageFix" result="shape"/>
<feColorMatrix in="SourceAlpha" type="matrix" values="0 0 0 0 0 0 0 0 0 0 0 0 0 0 0 0 0 0 127 0" result="hardAlpha"/>
<feOffset dy="0.33662"/>
<feComposite in2="hardAlpha" operator="arithmetic" k2="-1" k3="1"/>
<feColorMatrix type="matrix" values="0 0 0 0 0 0 0 0 0 0.0978361 0 0 0 0 0.354167 0 0 0 0.16 0"/>
<feBlend mode="multiply" in2="shape" result="effect1_innerShadow_3230_36018"/>
</filter>
<filter id="filter6_d_3230_36018" x="1.24594" y="39.0907" width="68.5605" height="25.3175" filterUnits="userSpaceOnUse" color-interpolation-filters="sRGB">
<feFlood flood-opacity="0" result="BackgroundImageFix"/>
<feColorMatrix in="SourceAlpha" type="matrix" values="0 0 0 0 0 0 0 0 0 0 0 0 0 0 0 0 0 0 127 0" result="hardAlpha"/>
<feOffset dx="-0.18228" dy="1.09368"/>
<feComposite in2="hardAlpha" operator="out"/>
<feColorMatrix type="matrix" values="0 0 0 0 0.258333 0 0 0 0 0.141126 0 0 0 0 0 0 0 0 1 0"/>
<feBlend mode="normal" in2="BackgroundImageFix" result="effect1_dropShadow_3230_36018"/>
<feBlend mode="normal" in="SourceGraphic" in2="effect1_dropShadow_3230_36018" result="shape"/>
</filter>
<filter id="filter7_f_3230_36018" x="73.5511" y="40.6368" width="23.1986" height="22.6743" filterUnits="userSpaceOnUse" color-interpolation-filters="sRGB">
<feFlood flood-opacity="0" result="BackgroundImageFix"/>
<feBlend mode="normal" in="SourceGraphic" in2="BackgroundImageFix" result="shape"/>
<feGaussianBlur stdDeviation="0.16831" result="effect1_foregroundBlur_3230_36018"/>
</filter>
<filter id="filter8_i_3230_36018" x="85.1323" y="43.0998" width="7.08496" height="10.0125" filterUnits="userSpaceOnUse" color-interpolation-filters="sRGB">
<feFlood flood-opacity="0" result="BackgroundImageFix"/>
<feBlend mode="normal" in="SourceGraphic" in2="BackgroundImageFix" result="shape"/>
<feColorMatrix in="SourceAlpha" type="matrix" values="0 0 0 0 0 0 0 0 0 0 0 0 0 0 0 0 0 0 127 0" result="hardAlpha"/>
<feOffset dy="0.33662"/>
<feComposite in2="hardAlpha" operator="arithmetic" k2="-1" k3="1"/>
<feColorMatrix type="matrix" values="0 0 0 0 0 0 0 0 0 0.0978361 0 0 0 0 0.354167 0 0 0 0.16 0"/>
<feBlend mode="multiply" in2="shape" result="effect1_innerShadow_3230_36018"/>
</filter>
<filter id="filter9_i_3230_36018" x="72.7441" y="46.2549" width="6.00562" height="10.7915" filterUnits="userSpaceOnUse" color-interpolation-filters="sRGB">
<feFlood flood-opacity="0" result="BackgroundImageFix"/>
<feBlend mode="normal" in="SourceGraphic" in2="BackgroundImageFix" result="shape"/>
<feColorMatrix in="SourceAlpha" type="matrix" values="0 0 0 0 0 0 0 0 0 0 0 0 0 0 0 0 0 0 127 0" result="hardAlpha"/>
<feOffset dy="0.33662"/>
<feComposite in2="hardAlpha" operator="arithmetic" k2="-1" k3="1"/>
<feColorMatrix type="matrix" values="0 0 0 0 0 0 0 0 0 0.0978361 0 0 0 0 0.354167 0 0 0 0.16 0"/>
<feBlend mode="multiply" in2="shape" result="effect1_innerShadow_3230_36018"/>
</filter>
<linearGradient id="paint0_linear_3230_36018" x1="36.9638" y1="8.33791" x2="36.9638" y2="44.3992" gradientUnits="userSpaceOnUse">
<stop stop-color="#EEC467"/>
<stop offset="0.07" stop-color="#CEA346"/>
<stop offset="0.23" stop-color="#FFFFCF"/>
<stop offset="0.41" stop-color="#FFDE7A"/>
<stop offset="0.59" stop-color="#CEA346"/>
<stop offset="0.77" stop-color="#6C3A00"/>
<stop offset="1" stop-color="#D7AC50"/>
</linearGradient>
<linearGradient id="paint1_linear_3230_36018" x1="36.9638" y1="8.33791" x2="36.9638" y2="44.3992" gradientUnits="userSpaceOnUse">
<stop stop-color="#EEC467"/>
<stop offset="0.07" stop-color="#CEA346"/>
<stop offset="0.23" stop-color="#FFFFCF"/>
<stop offset="0.41" stop-color="#FFDE7A"/>
<stop offset="0.59" stop-color="#CEA346"/>
<stop offset="0.77" stop-color="#6C3A00"/>
<stop offset="1" stop-color="#D7AC50"/>
</linearGradient>
<linearGradient id="paint2_linear_3230_36018" x1="36.9638" y1="8.33791" x2="36.9638" y2="44.3992" gradientUnits="userSpaceOnUse">
<stop stop-color="#EEC467"/>
<stop offset="0.07" stop-color="#CEA346"/>
<stop offset="0.23" stop-color="#FFFFCF"/>
<stop offset="0.41" stop-color="#FFDE7A"/>
<stop offset="0.59" stop-color="#CEA346"/>
<stop offset="0.77" stop-color="#6C3A00"/>
<stop offset="1" stop-color="#D7AC50"/>
</linearGradient>
<linearGradient id="paint3_linear_3230_36018" x1="35.6164" y1="48.2717" x2="35.6164" y2="7.55944" gradientUnits="userSpaceOnUse">
<stop offset="0.04" stop-color="#5C3B00"/>
<stop offset="0.12" stop-color="#785216"/>
<stop offset="0.26" stop-color="#AE8042"/>
<stop offset="0.39" stop-color="#BE985C"/>
<stop offset="0.4" stop-color="#C29E62"/>
<stop offset="0.49" stop-color="#DCC78E"/>
<stop offset="0.57" stop-color="#EFE4AE"/>
<stop offset="0.63" stop-color="#FBF7C1"/>
<stop offset="0.68" stop-color="#FFFDC8"/>
<stop offset="0.86" stop-color="#CFA350"/>
<stop offset="1" stop-color="#73490B"/>
</linearGradient>
<linearGradient id="paint4_linear_3230_36018" x1="90.327" y1="13.9259" x2="77.4582" y2="36.5014" gradientUnits="userSpaceOnUse">
<stop stop-color="#0098ED"/>
<stop offset="0.49" stop-color="#2860F4"/>
<stop offset="1" stop-color="#0335B8"/>
</linearGradient>
<linearGradient id="paint5_linear_3230_36018" x1="87.3237" y1="12.91" x2="86.489" y2="16.8181" gradientUnits="userSpaceOnUse">
<stop stop-color="white"/>
<stop offset="1" stop-color="white" stop-opacity="0.4"/>
</linearGradient>
<linearGradient id="paint6_linear_3230_36018" x1="97.416" y1="21.1435" x2="89.8654" y2="27.2523" gradientUnits="userSpaceOnUse">
<stop stop-color="white"/>
<stop offset="1" stop-color="white" stop-opacity="0.29"/>
</linearGradient>
<linearGradient id="paint7_linear_3230_36018" x1="83.5499" y1="2.66751" x2="98.8574" y2="19.6952" gradientUnits="userSpaceOnUse">
<stop stop-color="#EEC467"/>
<stop offset="0.07" stop-color="#CEA346"/>
<stop offset="0.23" stop-color="#FFFFCF"/>
<stop offset="0.41" stop-color="#FFDE7A"/>
<stop offset="0.59" stop-color="#CEA346"/>
<stop offset="0.77" stop-color="#6C3A00"/>
<stop offset="1" stop-color="#D7AC50"/>
</linearGradient>
<linearGradient id="paint8_linear_3230_36018" x1="85.2196" y1="-0.961863" x2="94.5981" y2="18.8034" gradientUnits="userSpaceOnUse">
<stop stop-color="#CAA962"/>
<stop offset="0.03" stop-color="#BD9336"/>
<stop offset="0.23" stop-color="#FFFFDA"/>
<stop offset="0.41" stop-color="#FFDB77"/>
<stop offset="0.59" stop-color="#C89D3F"/>
<stop offset="0.73" stop-color="#956300"/>
<stop offset="1" stop-color="#FACF73"/>
</linearGradient>
<linearGradient id="paint9_linear_3230_36018" x1="49.0821" y1="18.7868" x2="49.0821" y2="47.9633" gradientUnits="userSpaceOnUse">
<stop stop-color="#D9D9D9"/>
<stop offset="1" stop-color="#D9D9D9" stop-opacity="0"/>
</linearGradient>
<linearGradient id="paint10_linear_3230_36018" x1="36.9638" y1="68.5766" x2="36.9638" y2="32.5153" gradientUnits="userSpaceOnUse">
<stop stop-color="#EEC467"/>
<stop offset="0.07" stop-color="#CEA346"/>
<stop offset="0.23" stop-color="#FFFFCF"/>
<stop offset="0.41" stop-color="#FFDE7A"/>
<stop offset="0.59" stop-color="#CEA346"/>
<stop offset="0.77" stop-color="#6C3A00"/>
<stop offset="1" stop-color="#D7AC50"/>
</linearGradient>
<linearGradient id="paint11_linear_3230_36018" x1="36.9638" y1="68.5766" x2="36.9638" y2="32.5153" gradientUnits="userSpaceOnUse">
<stop stop-color="#EEC467"/>
<stop offset="0.07" stop-color="#CEA346"/>
<stop offset="0.23" stop-color="#FFFFCF"/>
<stop offset="0.41" stop-color="#FFDE7A"/>
<stop offset="0.59" stop-color="#CEA346"/>
<stop offset="0.77" stop-color="#6C3A00"/>
<stop offset="1" stop-color="#D7AC50"/>
</linearGradient>
<linearGradient id="paint12_linear_3230_36018" x1="36.9638" y1="68.5766" x2="36.9638" y2="32.5153" gradientUnits="userSpaceOnUse">
<stop stop-color="#EEC467"/>
<stop offset="0.07" stop-color="#CEA346"/>
<stop offset="0.23" stop-color="#FFFFCF"/>
<stop offset="0.41" stop-color="#FFDE7A"/>
<stop offset="0.59" stop-color="#CEA346"/>
<stop offset="0.77" stop-color="#6C3A00"/>
<stop offset="1" stop-color="#D7AC50"/>
</linearGradient>
<linearGradient id="paint13_linear_3230_36018" x1="35.6164" y1="28.6428" x2="35.6164" y2="69.355" gradientUnits="userSpaceOnUse">
<stop offset="0.04" stop-color="#5C3B00"/>
<stop offset="0.12" stop-color="#785216"/>
<stop offset="0.26" stop-color="#AE8042"/>
<stop offset="0.39" stop-color="#BE985C"/>
<stop offset="0.4" stop-color="#C29E62"/>
<stop offset="0.49" stop-color="#DCC78E"/>
<stop offset="0.57" stop-color="#EFE4AE"/>
<stop offset="0.63" stop-color="#FBF7C1"/>
<stop offset="0.68" stop-color="#FFFDC8"/>
<stop offset="0.86" stop-color="#CFA350"/>
<stop offset="1" stop-color="#73490B"/>
</linearGradient>
<linearGradient id="paint14_linear_3230_36018" x1="90.327" y1="63.6535" x2="77.4582" y2="41.078" gradientUnits="userSpaceOnUse">
<stop stop-color="#0098ED"/>
<stop offset="0.49" stop-color="#2860F4"/>
<stop offset="1" stop-color="#0335B8"/>
</linearGradient>
<linearGradient id="paint15_linear_3230_36018" x1="97.416" y1="56.4359" x2="89.8654" y2="50.3271" gradientUnits="userSpaceOnUse">
<stop stop-color="white"/>
<stop offset="1" stop-color="white" stop-opacity="0.29"/>
</linearGradient>
<clipPath id="clip0_3230_36018">
<rect width="27.7234" height="25.9751" fill="white" transform="translate(70.0767 12.7148)"/>
</clipPath>
<clipPath id="clip1_3230_36018">
<rect width="22.5856" height="16.3955" fill="white" transform="translate(80.7837)"/>
</clipPath>
<clipPath id="clip2_3230_36018">
<rect width="27.7234" height="25.9751" fill="white" transform="matrix(1 0 0 -1 70.0767 64.8646)"/>
</clipPath>
</defs>
</svg>
