<svg width="120" height="96" viewBox="0 0 120 96" fill="none" xmlns="http://www.w3.org/2000/svg">
<path d="M62.424 94.6667C88.5034 94.6667 109.645 73.4748 109.645 47.3333C109.645 21.1919 88.5034 0 62.424 0C36.3446 0 15.2031 21.1919 15.2031 47.3333C15.2031 73.4748 36.3446 94.6667 62.424 94.6667Z" fill="#38393A"/>
<path d="M82.5672 94.8573C75.8213 95.0478 67.6503 94.8573 61.9496 94.7621C56.2489 94.8573 48.0779 95.0478 41.332 94.8573C47.9829 91.0478 50.3582 83.9049 50.7382 79.2383H73.161C73.6361 83.9049 75.9163 91.0478 82.5672 94.8573Z" fill="url(#paint0_linear_355_24225)"/>
<path d="M104.416 19.8094V78.476C104.416 79.9046 103.276 80.9522 101.946 80.9522H22.3258C20.9006 80.9522 19.8555 79.8094 19.8555 78.476V19.8094C19.8555 18.3808 20.9956 17.3332 22.3258 17.3332H101.946C103.276 17.2379 104.416 18.3808 104.416 19.8094Z" fill="#8B8578"/>
<path d="M104.416 19.8094V70.2856H19.8555V19.8094C19.8555 18.3808 20.9956 17.3332 22.3258 17.3332H101.946C103.276 17.2379 104.416 18.3808 104.416 19.8094Z" fill="#212121"/>
<path d="M101.187 20.4761H22.707V67.5237H101.187V20.4761Z" fill="#38393A"/>
<path d="M27.3641 25.8097C28.0462 25.8097 28.5992 25.2554 28.5992 24.5716C28.5992 23.8878 28.0462 23.3335 27.3641 23.3335C26.6819 23.3335 26.1289 23.8878 26.1289 24.5716C26.1289 25.2554 26.6819 25.8097 27.3641 25.8097Z" fill="#BDFF00"/>
<path d="M31.3523 25.8097C32.0345 25.8097 32.5875 25.2554 32.5875 24.5716C32.5875 23.8878 32.0345 23.3335 31.3523 23.3335C30.6702 23.3335 30.1172 23.8878 30.1172 24.5716C30.1172 25.2554 30.6702 25.8097 31.3523 25.8097Z" fill="#00FFFF"/>
<path d="M35.3445 25.8097C36.0267 25.8097 36.5797 25.2554 36.5797 24.5716C36.5797 23.8878 36.0267 23.3335 35.3445 23.3335C34.6624 23.3335 34.1094 23.8878 34.1094 24.5716C34.1094 25.2554 34.6624 25.8097 35.3445 25.8097Z" fill="#FF9900"/>
<path d="M101.187 28.6665H39.6191H27.0776H22.707V67.5237H39.6191V29.2379H101.187V28.6665Z" fill="#303133"/>
<path d="M31.3559 37.0474C32.5103 37.0474 33.4461 36.1093 33.4461 34.9522C33.4461 33.795 32.5103 32.8569 31.3559 32.8569C30.2015 32.8569 29.2656 33.795 29.2656 34.9522C29.2656 36.1093 30.2015 37.0474 31.3559 37.0474Z" fill="#777E90"/>
<path d="M37.0535 40.1907H25.5571C25.2721 40.1907 25.082 40.0002 25.082 39.7145C25.082 39.4288 25.2721 39.2383 25.5571 39.2383H37.0535C37.3386 39.2383 37.5286 39.4288 37.5286 39.7145C37.6236 39.9049 37.3386 40.1907 37.0535 40.1907Z" fill="#777E90"/>
<path d="M37.0535 43.1428H25.5571C25.2721 43.1428 25.082 42.9523 25.082 42.6666C25.082 42.3809 25.2721 42.1904 25.5571 42.1904H37.0535C37.3386 42.1904 37.5286 42.3809 37.5286 42.6666C37.6236 42.8571 37.3386 43.1428 37.0535 43.1428Z" fill="#777E90"/>
<path d="M37.0535 46.0954H25.5571C25.2721 46.0954 25.082 45.905 25.082 45.6193C25.082 45.3335 25.2721 45.1431 25.5571 45.1431H37.0535C37.3386 45.1431 37.5286 45.3335 37.5286 45.6193C37.6236 45.8097 37.3386 46.0954 37.0535 46.0954Z" fill="#777E90"/>
<path d="M37.0535 49.0476H25.5571C25.2721 49.0476 25.082 48.8571 25.082 48.5714C25.082 48.2857 25.2721 48.0952 25.5571 48.0952H37.0535C37.3386 48.0952 37.5286 48.2857 37.5286 48.5714C37.6236 48.7619 37.3386 49.0476 37.0535 49.0476Z" fill="#777E90"/>
<path d="M37.0535 52.0002H25.5571C25.2721 52.0002 25.082 51.8098 25.082 51.524C25.082 51.2383 25.2721 51.0479 25.5571 51.0479H37.0535C37.3386 51.0479 37.5286 51.2383 37.5286 51.524C37.6236 51.7145 37.3386 52.0002 37.0535 52.0002Z" fill="#777E90"/>
<path d="M31.5428 54.9524H25.4621C25.2721 54.9524 25.082 54.7619 25.082 54.5715V54.2857C25.082 54.0953 25.2721 53.9048 25.4621 53.9048H31.5428C31.7329 53.9048 31.9229 54.0953 31.9229 54.2857V54.5715C31.8279 54.7619 31.7329 54.9524 31.5428 54.9524Z" fill="#777E90"/>
<path d="M61.9457 78C63.1001 78 64.036 77.062 64.036 75.9048C64.036 74.7476 63.1001 73.8096 61.9457 73.8096C60.7913 73.8096 59.8555 74.7476 59.8555 75.9048C59.8555 77.062 60.7913 78 61.9457 78Z" fill="#262A31"/>
<path d="M120.001 16.5714C120.001 17.5238 119.906 18.3809 119.716 19.3333C119.716 19.4285 119.716 19.4285 119.716 19.5238C118.766 23.5238 115.821 26.8571 112.115 28.2857C111.925 28.3809 111.83 28.3809 111.64 28.4761C110.405 28.9523 109.075 29.1428 107.65 29.1428C100.809 29.1428 95.2031 23.5238 95.2031 16.6666C95.2031 9.80948 100.809 4.19043 107.65 4.19043C114.491 4.19043 120.001 9.71424 120.001 16.5714Z" fill="url(#paint1_radial_355_24225)"/>
<path d="M119.716 19.3331C119.716 19.4284 119.716 19.4284 119.716 19.5236C118.766 23.5236 115.82 26.857 112.115 28.2855C111.925 28.3808 111.83 28.3808 111.64 28.476L103.754 20.5712L104.894 16.5712L104.799 15.0474L106.889 11.7141L108.885 10.7617L112.97 12.476L119.716 19.3331Z" fill="url(#paint2_linear_355_24225)"/>
<path d="M49.2182 50.4766H44.8477V61.048H49.2182V50.4766Z" fill="#2D2D2E"/>
<path d="M59.9526 45.6191H55.582V61.0477H59.9526V45.6191Z" fill="#2D2D2E"/>
<path d="M70.6909 50.4766H66.3203V61.048H70.6909V50.4766Z" fill="#2D2D2E"/>
<path d="M81.4252 38.1909H77.0547V61.0481H81.4252V38.1909Z" fill="#2D2D2E"/>
<path d="M92.1635 45.3335H87.793V61.0478H92.1635V45.3335Z" fill="#2D2D2E"/>
<path d="M49.2182 58.667H44.8477V61.0479H49.2182V58.667Z" fill="#BDFF00"/>
<path d="M59.9526 57.6191H55.582V61.0477H59.9526V57.6191Z" fill="#BDFF00"/>
<path d="M70.6909 58.667H66.3203V61.0479H70.6909V58.667Z" fill="#BDFF00"/>
<path d="M81.4252 55.9053H77.0547V61.0481H81.4252V55.9053Z" fill="#BDFF00"/>
<path d="M92.1635 57.5239H87.793V61.0477H92.1635V57.5239Z" fill="#BDFF00"/>
<g filter="url(#filter0_d_355_24225)">
<path d="M47.4133 59.4288C45.5131 59.4288 43.8979 58.8574 42.9478 58.5717C42.1877 58.286 41.8076 57.5241 41.9976 56.7622C42.2827 56.0003 43.0428 55.6193 43.8029 55.8098C46.3682 56.6669 49.4086 57.3336 52.0689 54.3812L52.829 53.5241C56.2494 49.8098 58.2447 47.6193 64.5155 51.0479C69.5511 53.905 71.3563 52.8574 73.3516 49.6193C74.1116 48.286 74.6817 46.8574 75.2518 45.5241C76.2969 42.8574 77.3421 40.0955 80.1924 40.4765H80.3824C83.1378 40.7622 86.4632 41.1431 90.6437 35.3336C91.2138 34.4765 91.7839 33.905 92.2589 33.4288C92.829 32.8574 93.7791 32.9526 94.2542 33.5241C94.8242 34.0955 94.7292 35.0479 94.1591 35.5241C93.7791 35.8098 93.3991 36.3812 92.924 37.0479C87.8884 44.0955 83.0428 43.6193 80.0974 43.3336H79.9074C79.2423 43.2384 78.6722 44.4765 77.9121 46.5717C77.3421 48.0003 76.772 49.6193 75.8219 51.1431C72.7815 56.1907 69.076 56.8574 63.1853 53.6193C58.9098 51.2384 58.3397 51.905 55.0143 55.5241L54.1592 56.4765C51.9739 58.8574 49.5036 59.4288 47.4133 59.4288Z" fill="url(#paint3_linear_355_24225)"/>
</g>
<path d="M50.7394 36.0956H44.9437C44.4686 36.0956 44.1836 35.7146 44.1836 35.3337C44.1836 34.8575 44.5636 34.5718 44.9437 34.5718H50.7394C51.2145 34.5718 51.4995 34.9527 51.4995 35.3337C51.4995 35.8099 51.1195 36.0956 50.7394 36.0956Z" fill="#777E90"/>
<path d="M55.9651 39.8099H44.9437C44.4686 39.8099 44.1836 39.429 44.1836 39.048C44.1836 38.5718 44.5636 38.2861 44.9437 38.2861H55.8701C56.3451 38.2861 56.6301 38.6671 56.6301 39.048C56.7252 39.429 56.3451 39.8099 55.9651 39.8099Z" fill="#777E90"/>
<path d="M27.8385 64.5718C27.8385 66.0004 27.6485 67.3337 27.2684 68.5718C25.8432 73.4289 21.8527 77.1432 16.8171 78.2861C15.867 78.4765 14.9169 78.5718 13.8717 78.5718C6.27078 78.5718 0 72.2861 0 64.5718C0 56.8575 6.27078 50.5718 13.9667 50.5718C21.6627 50.5718 27.8385 56.8575 27.8385 64.5718Z" fill="url(#paint4_linear_355_24225)"/>
<path d="M27.2693 68.572C25.8441 73.4291 21.8536 77.1434 16.818 78.2862L8.26689 69.7148L9.40703 68.6672L8.17188 67.4291L10.0721 66.0005L17.483 60.8577L18.3381 59.8101L27.2693 68.572Z" fill="url(#paint5_linear_355_24225)"/>
<path d="M16.7758 64.1855H18.106C18.391 64.1855 18.5811 64.376 18.5811 64.6617V69.4236C18.5811 69.7094 18.391 69.8998 18.106 69.8998H16.7758C16.4908 69.8998 16.3008 69.7094 16.3008 69.4236V64.6617C16.3008 64.376 16.4908 64.1855 16.7758 64.1855Z" fill="url(#paint6_linear_355_24225)"/>
<path d="M12.7837 66.5669H14.1138C14.3989 66.5669 14.5889 66.7574 14.5889 67.0431V69.424C14.5889 69.7098 14.3989 69.9002 14.1138 69.9002H12.7837C12.4986 69.9002 12.3086 69.7098 12.3086 69.424V67.0431C12.3086 66.7574 12.4986 66.5669 12.7837 66.5669Z" fill="url(#paint7_linear_355_24225)"/>
<path d="M8.79448 68.4717H10.1246C10.4097 68.4717 10.5997 68.6622 10.5997 68.9479V69.4241C10.5997 69.7098 10.4097 69.9003 10.1246 69.9003H8.79448C8.50944 69.9003 8.31942 69.7098 8.31942 69.4241V68.9479C8.22441 68.6622 8.50944 68.4717 8.79448 68.4717Z" fill="url(#paint8_linear_355_24225)"/>
<path d="M18.1989 59.5191C18.3889 59.5191 18.579 59.7095 18.579 59.9V62.3762C18.579 62.4714 18.4839 62.5667 18.3889 62.5667H17.6288C17.5338 62.5667 17.4388 62.4714 17.4388 62.3762V61.4238C14.8735 63.9 11.8331 65.9 8.50769 67.3286C8.41268 67.3286 8.41269 67.3286 8.31767 67.3286L8.22266 67.2334V66.3762C8.22266 66.281 8.31767 66.1857 8.41268 66.1857C11.4531 64.8524 14.3034 62.9476 16.6787 60.5667H15.6336C15.5386 60.5667 15.4436 60.4714 15.4436 60.3762V59.6143C15.4436 59.5191 15.5386 59.4238 15.6336 59.4238L18.1989 59.5191Z" fill="url(#paint9_linear_355_24225)"/>
<path d="M112.359 17.0018H107.988C107.798 17.0018 107.608 16.8113 107.608 16.6209V12.2399C107.608 11.859 107.323 11.6685 107.038 11.5732H106.943C103.998 11.9542 102.002 14.7161 102.382 17.6685C102.762 20.6209 105.518 22.6209 108.463 22.2399C110.838 21.9542 112.739 20.0494 113.024 17.6685C113.024 17.3828 112.739 17.0018 112.359 17.0018C112.454 17.0018 112.359 17.0018 112.359 17.0018Z" fill="url(#paint10_linear_355_24225)"/>
<path d="M108.746 11.0971V15.3829C108.746 15.6686 108.936 15.859 109.221 15.859H113.497C113.782 15.859 113.972 15.6686 113.972 15.3829C113.782 13.0019 111.691 10.7162 109.221 10.6209C108.936 10.5257 108.746 10.7162 108.746 11.0971C108.746 11.0019 108.746 11.0971 108.746 11.0971Z" fill="white"/>
<path d="M14.7266 94.7617H111.829" stroke="#2B323C" stroke-width="2" stroke-miterlimit="10" stroke-linecap="round" stroke-linejoin="round"/>
<path d="M41.9944 96H81.9943C82.5644 96 83.0395 95.5238 83.0395 94.9524C83.0395 94.381 82.5644 93.9048 81.9943 93.9048H41.9944C41.4243 93.9048 40.9492 94.381 40.9492 94.9524C40.9492 95.5238 41.4243 96 41.9944 96Z" fill="#353B4A"/>
<path d="M9.72829 18.1015C10.9448 17.704 11.6104 16.3902 11.215 15.1671C10.8196 13.944 9.51292 13.2748 8.29642 13.6723C7.07992 14.0698 6.41429 15.3836 6.80969 16.6067C7.20509 17.8298 8.51179 18.4991 9.72829 18.1015Z" fill="#2A2E39"/>
<path d="M20.7567 12.644C21.5839 12.3737 22.0365 11.4803 21.7676 10.6486C21.4988 9.8169 20.6102 9.36181 19.783 9.63213C18.9558 9.90244 18.5031 10.7958 18.772 11.6275C19.0409 12.4592 19.9294 12.9143 20.7567 12.644Z" fill="#2A2E39"/>
<path d="M117.064 76.1853C118.499 74.8665 118.599 72.6275 117.288 71.1844C115.976 69.7413 113.749 69.6405 112.314 70.9593C110.878 72.2781 110.778 74.517 112.09 75.9601C113.401 77.4033 115.628 77.5041 117.064 76.1853Z" fill="#2A2E39"/>
<path d="M114.333 88.5392C114.937 87.984 114.979 87.0412 114.427 86.4336C113.875 85.826 112.937 85.7836 112.333 86.3388C111.728 86.8941 111.686 87.8368 112.238 88.4444C112.791 89.0521 113.728 89.0945 114.333 88.5392Z" fill="#2A2E39"/>
<defs>
<filter id="filter0_d_355_24225" x="35.9492" y="30.0449" width="64.6875" height="38.3838" filterUnits="userSpaceOnUse" color-interpolation-filters="sRGB">
<feFlood flood-opacity="0" result="BackgroundImageFix"/>
<feColorMatrix in="SourceAlpha" type="matrix" values="0 0 0 0 0 0 0 0 0 0 0 0 0 0 0 0 0 0 127 0" result="hardAlpha"/>
<feOffset dy="3"/>
<feGaussianBlur stdDeviation="3"/>
<feColorMatrix type="matrix" values="0 0 0 0 0.2 0 0 0 0 1 0 0 0 0 0 0 0 0 0.24 0"/>
<feBlend mode="normal" in2="BackgroundImageFix" result="effect1_dropShadow_355_24225"/>
<feBlend mode="normal" in="SourceGraphic" in2="effect1_dropShadow_355_24225" result="shape"/>
</filter>
<linearGradient id="paint0_linear_355_24225" x1="61.8616" y1="94.5346" x2="61.8616" y2="80.5029" gradientUnits="userSpaceOnUse">
<stop stop-color="#474755"/>
<stop offset="0.9913" stop-color="#2F3338"/>
</linearGradient>
<radialGradient id="paint1_radial_355_24225" cx="0" cy="0" r="1" gradientUnits="userSpaceOnUse" gradientTransform="translate(107.725 5.08159) rotate(90.2923) scale(24.0615 17.9313)">
<stop stop-color="#FFD166"/>
<stop offset="1" stop-color="#D0A132"/>
</radialGradient>
<linearGradient id="paint2_linear_355_24225" x1="106.161" y1="14.4321" x2="115.614" y2="23.8621" gradientUnits="userSpaceOnUse">
<stop stop-color="#B98500"/>
<stop offset="1" stop-color="#E0931F" stop-opacity="0"/>
</linearGradient>
<linearGradient id="paint3_linear_355_24225" x1="41.9381" y1="46.3376" x2="94.557" y2="46.3376" gradientUnits="userSpaceOnUse">
<stop stop-color="#A3FF83"/>
<stop offset="1" stop-color="#5AFF92"/>
</linearGradient>
<linearGradient id="paint4_linear_355_24225" x1="0" y1="64.5869" x2="27.8765" y2="64.5869" gradientUnits="userSpaceOnUse">
<stop stop-color="#3EAD17"/>
<stop offset="1" stop-color="#109C48"/>
</linearGradient>
<linearGradient id="paint5_linear_355_24225" x1="13.9671" y1="65.2724" x2="22.4335" y2="73.7186" gradientUnits="userSpaceOnUse">
<stop stop-color="#1E840E"/>
<stop offset="1" stop-color="#299403" stop-opacity="0"/>
</linearGradient>
<linearGradient id="paint6_linear_355_24225" x1="19.0249" y1="68.631" x2="13.5914" y2="63.2105" gradientUnits="userSpaceOnUse">
<stop offset="0.0113208" stop-color="#C2D1FF"/>
<stop offset="1" stop-color="white"/>
</linearGradient>
<linearGradient id="paint7_linear_355_24225" x1="16.4342" y1="71.2266" x2="11.0007" y2="65.806" gradientUnits="userSpaceOnUse">
<stop offset="0.0113208" stop-color="#C2D1FF"/>
<stop offset="1" stop-color="white"/>
</linearGradient>
<linearGradient id="paint8_linear_355_24225" x1="13.95" y1="73.7181" x2="8.51649" y2="68.2975" gradientUnits="userSpaceOnUse">
<stop offset="0.0113208" stop-color="#C2D1FF"/>
<stop offset="1" stop-color="white"/>
</linearGradient>
<linearGradient id="paint9_linear_355_24225" x1="18.7423" y1="68.9123" x2="13.3089" y2="63.4917" gradientUnits="userSpaceOnUse">
<stop offset="0.0113208" stop-color="#C2D1FF"/>
<stop offset="1" stop-color="white"/>
</linearGradient>
<linearGradient id="paint10_linear_355_24225" x1="110.916" y1="21.5387" x2="103.646" y2="14.2858" gradientUnits="userSpaceOnUse">
<stop offset="0.0113208" stop-color="#FFF0C9"/>
<stop offset="1" stop-color="white"/>
</linearGradient>
</defs>
</svg>
